<svg width="40" height="40" viewBox="0 0 40 40" fill="none" xmlns="http://www.w3.org/2000/svg">
<path d="M9 32C9 32 9 32.8677 9.54497 33.9373C10.0243 34.8781 10.7892 35.643 11.73 36.1224C12.7996 36.6673 14.1997 36.6673 17 36.6673H27.6667C30.4669 36.6673 31.8671 36.6673 32.9366 36.1224C33.8774 35.643 34.6423 34.8781 35.1217 33.9373C35.6667 32.8677 35.6667 31 35.6667 31L35.5976 23.5L35.5285 15C35.5285 14 35.204 13.2399 34.9299 12.7926C34.6207 12.288 34.1883 11.8556 33.3235 10.9908L28.0098 5.67713C27.1451 4.81237 26.7127 4.37999 26.2081 4.07078C25.7607 3.79664 25.273 3.59462 24.7628 3.47213C24.1874 3.33398 23.5759 3.33398 22.353 3.33398H17C14.1997 3.33398 12.7996 3.33398 11.73 3.87895C10.7892 4.35832 10.0243 5.12322 9.54497 6.06403C9 7.13359 9 8.19058 9 10.9908V14.5M25.6667 3.78308V10.6673C25.6667 11.6007 25.6667 12.0675 25.8483 12.424C26.0081 12.7376 26.2631 12.9925 26.5767 13.1523C26.9332 13.334 27.3999 13.334 28.3333 13.334H35.2176" stroke="#BEC4CC" stroke-width="2.2" stroke-linecap="round" stroke-linejoin="round"/>
<rect x="3" y="17" width="29" height="13" rx="2" fill="#E49E1E"/>
<path d="M5.20333 28V19.6H8.76733C9.26333 19.6 9.71133 19.72 10.1113 19.96C10.5193 20.192 10.8393 20.512 11.0713 20.92C11.3113 21.328 11.4313 21.788 11.4313 22.3C11.4313 22.82 11.3113 23.288 11.0713 23.704C10.8393 24.12 10.5193 24.452 10.1113 24.7C9.71133 24.94 9.26333 25.06 8.76733 25.06H7.00333V28H5.20333ZM6.97933 23.44H8.56333C8.75533 23.44 8.92733 23.392 9.07933 23.296C9.23133 23.192 9.35133 23.056 9.43933 22.888C9.53533 22.72 9.58333 22.528 9.58333 22.312C9.58333 22.096 9.53533 21.908 9.43933 21.748C9.35133 21.58 9.23133 21.452 9.07933 21.364C8.92733 21.268 8.75533 21.22 8.56333 21.22H6.97933V23.44ZM13.0432 28V19.6H14.6512L19.2952 25.876H18.9592C18.9272 25.628 18.8992 25.388 18.8752 25.156C18.8512 24.916 18.8272 24.676 18.8032 24.436C18.7872 24.188 18.7712 23.936 18.7552 23.68C18.7472 23.416 18.7392 23.14 18.7312 22.852C18.7232 22.556 18.7192 22.236 18.7192 21.892V19.6H20.4832V28H18.8512L14.1112 21.664L14.5672 21.676C14.6072 22.092 14.6392 22.448 14.6632 22.744C14.6952 23.032 14.7192 23.284 14.7352 23.5C14.7512 23.716 14.7632 23.904 14.7712 24.064C14.7872 24.224 14.7952 24.376 14.7952 24.52C14.8032 24.664 14.8072 24.816 14.8072 24.976V28H13.0432ZM26.5163 28.12C25.8683 28.12 25.2723 28.012 24.7283 27.796C24.1923 27.572 23.7283 27.264 23.3363 26.872C22.9443 26.48 22.6403 26.02 22.4243 25.492C22.2163 24.964 22.1123 24.392 22.1123 23.776C22.1123 23.16 22.2203 22.592 22.4363 22.072C22.6603 21.544 22.9723 21.088 23.3723 20.704C23.7803 20.312 24.2563 20.008 24.8003 19.792C25.3443 19.576 25.9403 19.468 26.5883 19.468C27.0363 19.468 27.4643 19.528 27.8723 19.648C28.2803 19.768 28.6523 19.932 28.9883 20.14C29.3243 20.348 29.6043 20.588 29.8283 20.86L28.7123 22.036C28.5043 21.836 28.2843 21.668 28.0523 21.532C27.8283 21.388 27.5923 21.28 27.3443 21.208C27.0963 21.128 26.8403 21.088 26.5763 21.088C26.2003 21.088 25.8523 21.156 25.5323 21.292C25.2203 21.428 24.9443 21.616 24.7043 21.856C24.4643 22.096 24.2763 22.38 24.1403 22.708C24.0123 23.036 23.9483 23.392 23.9483 23.776C23.9483 24.152 24.0163 24.508 24.1523 24.844C24.2963 25.172 24.4883 25.46 24.7283 25.708C24.9763 25.948 25.2643 26.14 25.5923 26.284C25.9203 26.42 26.2723 26.488 26.6483 26.488C26.9123 26.488 27.1643 26.448 27.4043 26.368C27.6443 26.288 27.8523 26.176 28.0283 26.032C28.2123 25.88 28.3523 25.704 28.4483 25.504C28.5523 25.304 28.6043 25.092 28.6043 24.868V24.58L28.8443 24.916H26.4443V23.416H30.3323C30.3403 23.504 30.3483 23.612 30.3563 23.74C30.3723 23.868 30.3803 23.996 30.3803 24.124C30.3883 24.244 30.3923 24.34 30.3923 24.412C30.3923 24.956 30.2923 25.456 30.0923 25.912C29.9003 26.368 29.6283 26.76 29.2763 27.088C28.9323 27.416 28.5243 27.672 28.0523 27.856C27.5803 28.032 27.0683 28.12 26.5163 28.12Z" fill="white"/>
</svg>
