<svg width="40" height="40" viewBox="0 0 40 40" fill="none" xmlns="http://www.w3.org/2000/svg">
<path d="M9 32C9 32 9 32.8677 9.54497 33.9373C10.0243 34.8781 10.7892 35.643 11.73 36.1224C12.7996 36.6673 14.1997 36.6673 17 36.6673H27.6667C30.4669 36.6673 31.8671 36.6673 32.9366 36.1224C33.8774 35.643 34.6423 34.8781 35.1217 33.9373C35.6667 32.8677 35.6667 31 35.6667 31L35.5976 23.5L35.5285 15C35.5285 14 35.204 13.2399 34.9299 12.7926C34.6207 12.288 34.1883 11.8556 33.3235 10.9908L28.0098 5.67713C27.1451 4.81237 26.7127 4.37999 26.2081 4.07078C25.7607 3.79664 25.273 3.59462 24.7628 3.47213C24.1874 3.33398 23.5759 3.33398 22.353 3.33398H17C14.1997 3.33398 12.7996 3.33398 11.73 3.87895C10.7892 4.35832 10.0243 5.12322 9.54497 6.06403C9 7.13359 9 8.19058 9 10.9908V14.5M25.6667 3.78308V10.6673C25.6667 11.6007 25.6667 12.0675 25.8483 12.424C26.0081 12.7376 26.2631 12.9925 26.5767 13.1523C26.9332 13.334 27.3999 13.334 28.3333 13.334H35.2176" stroke="#BEC4CC" stroke-width="2.2" stroke-linecap="round" stroke-linejoin="round"/>
<rect x="3" y="17" width="29" height="13" rx="2" fill="#F03E38"/>
<path d="M6.41036 28V19.6H9.97436C10.4704 19.6 10.9184 19.72 11.3184 19.96C11.7264 20.192 12.0464 20.512 12.2784 20.92C12.5184 21.328 12.6384 21.788 12.6384 22.3C12.6384 22.82 12.5184 23.288 12.2784 23.704C12.0464 24.12 11.7264 24.452 11.3184 24.7C10.9184 24.94 10.4704 25.06 9.97436 25.06H8.21036V28H6.41036ZM8.18636 23.44H9.77036C9.96236 23.44 10.1344 23.392 10.2864 23.296C10.4384 23.192 10.5584 23.056 10.6464 22.888C10.7424 22.72 10.7904 22.528 10.7904 22.312C10.7904 22.096 10.7424 21.908 10.6464 21.748C10.5584 21.58 10.4384 21.452 10.2864 21.364C10.1344 21.268 9.96236 21.22 9.77036 21.22H8.18636V23.44ZM14.2502 28V19.6H17.6942C18.3102 19.6 18.8662 19.704 19.3622 19.912C19.8662 20.112 20.2982 20.4 20.6582 20.776C21.0262 21.144 21.3062 21.584 21.4982 22.096C21.6902 22.608 21.7862 23.176 21.7862 23.8C21.7862 24.416 21.6902 24.984 21.4982 25.504C21.3062 26.016 21.0302 26.46 20.6702 26.836C20.3102 27.204 19.8782 27.492 19.3742 27.7C18.8702 27.9 18.3102 28 17.6942 28H14.2502ZM16.0502 26.692L15.8582 26.38H17.6342C17.9942 26.38 18.3182 26.32 18.6062 26.2C18.8942 26.072 19.1382 25.9 19.3382 25.684C19.5462 25.46 19.7022 25.188 19.8062 24.868C19.9102 24.548 19.9622 24.192 19.9622 23.8C19.9622 23.408 19.9102 23.056 19.8062 22.744C19.7022 22.424 19.5462 22.152 19.3382 21.928C19.1382 21.704 18.8942 21.532 18.6062 21.412C18.3182 21.284 17.9942 21.22 17.6342 21.22H15.8222L16.0502 20.932V26.692ZM23.4143 28V19.6H25.2143V28H23.4143ZM24.2423 24.664V23.116H28.5863V24.664H24.2423ZM24.2423 21.22V19.6H29.0903V21.22H24.2423Z" fill="white"/>
</svg>
