<svg width="40" height="40" viewBox="0 0 40 40" fill="none" xmlns="http://www.w3.org/2000/svg">
<path d="M9 32C9 32 9 32.8677 9.54497 33.9373C10.0243 34.8781 10.7892 35.643 11.73 36.1224C12.7996 36.6673 14.1997 36.6673 17 36.6673H27.6667C30.4669 36.6673 31.8671 36.6673 32.9366 36.1224C33.8774 35.643 34.6423 34.8781 35.1217 33.9373C35.6667 32.8677 35.6667 31 35.6667 31L35.5976 23.5L35.5285 15C35.5285 14 35.204 13.2399 34.9299 12.7926C34.6207 12.288 34.1883 11.8556 33.3235 10.9908L28.0098 5.67713C27.1451 4.81237 26.7127 4.37999 26.2081 4.07078C25.7607 3.79664 25.273 3.59462 24.7628 3.47213C24.1874 3.33398 23.5759 3.33398 22.353 3.33398H17C14.1997 3.33398 12.7996 3.33398 11.73 3.87895C10.7892 4.35832 10.0243 5.12322 9.54497 6.06403C9 7.13359 9 8.19058 9 10.9908V14.5M25.6667 3.78308V10.6673C25.6667 11.6007 25.6667 12.0675 25.8483 12.424C26.0081 12.7376 26.2631 12.9925 26.5767 13.1523C26.9332 13.334 27.3999 13.334 28.3333 13.334H35.2176" stroke="#BEC4CC" stroke-width="2.2" stroke-linecap="round" stroke-linejoin="round"/>
<rect x="3" y="17" width="29" height="13" rx="2" fill="#016EE6"/>
<path d="M7.58066 28.12C7.28466 28.12 7.00466 28.084 6.74066 28.012C6.48466 27.94 6.24466 27.84 6.02066 27.712C5.80466 27.584 5.60866 27.428 5.43266 27.244C5.25666 27.052 5.10866 26.84 4.98866 26.608L6.03266 25.516C6.16866 25.7 6.29266 25.856 6.40466 25.984C6.52466 26.104 6.63666 26.2 6.74066 26.272C6.85266 26.344 6.96466 26.396 7.07666 26.428C7.18866 26.452 7.30866 26.464 7.43666 26.464C7.66066 26.464 7.85666 26.412 8.02466 26.308C8.20066 26.204 8.33266 26.06 8.42066 25.876C8.51666 25.692 8.56466 25.48 8.56466 25.24V21.196H7.02866V19.6H11.6247V21.196H10.3287V25.444C10.3287 25.844 10.2607 26.208 10.1247 26.536C9.98866 26.864 9.79666 27.148 9.54866 27.388C9.30066 27.62 9.00866 27.8 8.67266 27.928C8.34466 28.056 7.98066 28.12 7.58066 28.12ZM13.4631 28V19.6H17.0271C17.5231 19.6 17.9711 19.72 18.3711 19.96C18.7791 20.192 19.0991 20.512 19.3311 20.92C19.5711 21.328 19.6911 21.788 19.6911 22.3C19.6911 22.82 19.5711 23.288 19.3311 23.704C19.0991 24.12 18.7791 24.452 18.3711 24.7C17.9711 24.94 17.5231 25.06 17.0271 25.06H15.2631V28H13.4631ZM15.2391 23.44H16.8231C17.0151 23.44 17.1871 23.392 17.3391 23.296C17.4911 23.192 17.6111 23.056 17.6991 22.888C17.7951 22.72 17.8431 22.528 17.8431 22.312C17.8431 22.096 17.7951 21.908 17.6991 21.748C17.6111 21.58 17.4911 21.452 17.3391 21.364C17.1871 21.268 17.0151 21.22 16.8231 21.22H15.2391V23.44ZM25.1549 28.12C24.5069 28.12 23.9109 28.012 23.3669 27.796C22.8309 27.572 22.3669 27.264 21.9749 26.872C21.5829 26.48 21.2789 26.02 21.0629 25.492C20.8549 24.964 20.7509 24.392 20.7509 23.776C20.7509 23.16 20.8589 22.592 21.0749 22.072C21.2989 21.544 21.6109 21.088 22.0109 20.704C22.4189 20.312 22.8949 20.008 23.4389 19.792C23.9829 19.576 24.5789 19.468 25.2269 19.468C25.6749 19.468 26.1029 19.528 26.5109 19.648C26.9189 19.768 27.2909 19.932 27.6269 20.14C27.9629 20.348 28.2429 20.588 28.4669 20.86L27.3509 22.036C27.1429 21.836 26.9229 21.668 26.6909 21.532C26.4669 21.388 26.2309 21.28 25.9829 21.208C25.7349 21.128 25.4789 21.088 25.2149 21.088C24.8389 21.088 24.4909 21.156 24.1709 21.292C23.8589 21.428 23.5829 21.616 23.3429 21.856C23.1029 22.096 22.9149 22.38 22.7789 22.708C22.6509 23.036 22.5869 23.392 22.5869 23.776C22.5869 24.152 22.6549 24.508 22.7909 24.844C22.9349 25.172 23.1269 25.46 23.3669 25.708C23.6149 25.948 23.9029 26.14 24.2309 26.284C24.5589 26.42 24.9109 26.488 25.2869 26.488C25.5509 26.488 25.8029 26.448 26.0429 26.368C26.2829 26.288 26.4909 26.176 26.6669 26.032C26.8509 25.88 26.9909 25.704 27.0869 25.504C27.1909 25.304 27.2429 25.092 27.2429 24.868V24.58L27.4829 24.916H25.0829V23.416H28.9709C28.9789 23.504 28.9869 23.612 28.9949 23.74C29.0109 23.868 29.0189 23.996 29.0189 24.124C29.0269 24.244 29.0309 24.34 29.0309 24.412C29.0309 24.956 28.9309 25.456 28.7309 25.912C28.5389 26.368 28.2669 26.76 27.9149 27.088C27.5709 27.416 27.1629 27.672 26.6909 27.856C26.2189 28.032 25.7069 28.12 25.1549 28.12Z" fill="white"/>
</svg>
