<svg width="40" height="40" viewBox="0 0 40 40" fill="none" xmlns="http://www.w3.org/2000/svg">
<path d="M9 32C9 32 9 32.8677 9.54497 33.9373C10.0243 34.8781 10.7892 35.643 11.73 36.1224C12.7996 36.6673 14.1997 36.6673 17 36.6673H27.6667C30.4669 36.6673 31.8671 36.6673 32.9366 36.1224C33.8774 35.643 34.6423 34.8781 35.1217 33.9373C35.6667 32.8677 35.6667 31 35.6667 31L35.5976 23.5L35.5285 15C35.5285 14 35.204 13.2399 34.9299 12.7926C34.6207 12.288 34.1883 11.8556 33.3235 10.9908L28.0098 5.67713C27.1451 4.81237 26.7127 4.37999 26.2081 4.07078C25.7607 3.79664 25.273 3.59462 24.7628 3.47213C24.1874 3.33398 23.5759 3.33398 22.353 3.33398H17C14.1997 3.33398 12.7996 3.33398 11.73 3.87895C10.7892 4.35832 10.0243 5.12322 9.54497 6.06403C9 7.13359 9 8.19058 9 10.9908V14.5M25.6667 3.78308V10.6673C25.6667 11.6007 25.6667 12.0675 25.8483 12.424C26.0081 12.7376 26.2631 12.9925 26.5767 13.1523C26.9332 13.334 27.3999 13.334 28.3333 13.334H35.2176" stroke="#BEC4CC" stroke-width="2.2" stroke-linecap="round" stroke-linejoin="round"/>
<rect x="3" y="17" width="29" height="13" rx="2" fill="#15AA51"/>
<path d="M10.0768 28.12C9.46078 28.12 8.89278 28.016 8.37278 27.808C7.86078 27.592 7.41278 27.292 7.02878 26.908C6.65278 26.516 6.36078 26.056 6.15278 25.528C5.94478 24.992 5.84078 24.408 5.84078 23.776C5.84078 23.16 5.94878 22.592 6.16478 22.072C6.38078 21.544 6.68478 21.088 7.07678 20.704C7.46878 20.312 7.92878 20.008 8.45678 19.792C8.98478 19.576 9.55678 19.468 10.1728 19.468C10.5728 19.468 10.9648 19.524 11.3488 19.636C11.7408 19.74 12.0968 19.896 12.4168 20.104C12.7448 20.312 13.0248 20.56 13.2568 20.848L12.1288 22.096C11.9368 21.904 11.7368 21.74 11.5288 21.604C11.3288 21.46 11.1128 21.352 10.8808 21.28C10.6568 21.2 10.4168 21.16 10.1608 21.16C9.81678 21.16 9.49278 21.224 9.18878 21.352C8.89278 21.48 8.63278 21.66 8.40878 21.892C8.18478 22.116 8.00478 22.392 7.86878 22.72C7.74078 23.04 7.67678 23.396 7.67678 23.788C7.67678 24.188 7.74078 24.552 7.86878 24.88C7.99678 25.2 8.17678 25.476 8.40878 25.708C8.64078 25.932 8.91678 26.108 9.23678 26.236C9.56478 26.356 9.92478 26.416 10.3168 26.416C10.5728 26.416 10.8208 26.38 11.0608 26.308C11.3008 26.236 11.5208 26.136 11.7208 26.008C11.9288 25.88 12.1128 25.732 12.2728 25.564L13.1488 26.968C12.9568 27.184 12.6968 27.38 12.3688 27.556C12.0488 27.732 11.6888 27.872 11.2888 27.976C10.8888 28.072 10.4848 28.12 10.0768 28.12ZM17.3902 28.12C16.8702 28.12 16.3942 28.056 15.9622 27.928C15.5382 27.8 15.1582 27.612 14.8222 27.364C14.4942 27.116 14.1982 26.816 13.9342 26.464L15.0622 25.18C15.4542 25.724 15.8422 26.096 16.2262 26.296C16.6182 26.488 17.0422 26.584 17.4982 26.584C17.7462 26.584 17.9662 26.552 18.1582 26.488C18.3582 26.416 18.5142 26.316 18.6262 26.188C18.7382 26.06 18.7942 25.908 18.7942 25.732C18.7942 25.604 18.7662 25.488 18.7102 25.384C18.6542 25.272 18.5742 25.176 18.4702 25.096C18.3662 25.008 18.2422 24.932 18.0982 24.868C17.9542 24.796 17.7942 24.736 17.6182 24.688C17.4422 24.632 17.2502 24.588 17.0422 24.556C16.5942 24.452 16.2022 24.328 15.8662 24.184C15.5302 24.032 15.2502 23.848 15.0262 23.632C14.8022 23.408 14.6342 23.156 14.5222 22.876C14.4182 22.596 14.3662 22.28 14.3662 21.928C14.3662 21.568 14.4462 21.236 14.6062 20.932C14.7662 20.62 14.9862 20.352 15.2662 20.128C15.5542 19.904 15.8822 19.732 16.2502 19.612C16.6262 19.492 17.0222 19.432 17.4382 19.432C17.9502 19.432 18.3982 19.492 18.7822 19.612C19.1662 19.724 19.4982 19.888 19.7782 20.104C20.0662 20.32 20.3062 20.584 20.4982 20.896L19.3582 22C19.1902 21.776 19.0062 21.588 18.8062 21.436C18.6142 21.284 18.4022 21.172 18.1702 21.1C17.9462 21.02 17.7142 20.98 17.4742 20.98C17.2102 20.98 16.9822 21.016 16.7902 21.088C16.5982 21.152 16.4462 21.248 16.3342 21.376C16.2302 21.504 16.1782 21.66 16.1782 21.844C16.1782 21.988 16.2142 22.116 16.2862 22.228C16.3582 22.34 16.4622 22.44 16.5982 22.528C16.7342 22.608 16.8982 22.68 17.0902 22.744C17.2822 22.808 17.4942 22.864 17.7262 22.912C18.1662 23 18.5622 23.116 18.9142 23.26C19.2662 23.404 19.5662 23.58 19.8142 23.788C20.0702 23.988 20.2662 24.228 20.4022 24.508C20.5382 24.78 20.6062 25.088 20.6062 25.432C20.6062 26 20.4702 26.484 20.1982 26.884C19.9262 27.284 19.5502 27.592 19.0702 27.808C18.5902 28.016 18.0302 28.12 17.3902 28.12ZM24.6245 28L21.2765 19.6H23.1845L24.9365 24.148C25.0325 24.396 25.1125 24.616 25.1765 24.808C25.2485 24.992 25.3085 25.168 25.3565 25.336C25.4125 25.496 25.4645 25.656 25.5125 25.816C25.5605 25.968 25.6085 26.136 25.6565 26.32L25.3085 26.332C25.3725 26.084 25.4365 25.856 25.5005 25.648C25.5645 25.432 25.6365 25.208 25.7165 24.976C25.7965 24.744 25.8965 24.468 26.0165 24.148L27.6725 19.6H29.5685L26.1965 28H24.6245Z" fill="white"/>
</svg>
