<svg width="40" height="40" viewBox="0 0 40 40" fill="none" xmlns="http://www.w3.org/2000/svg">
<path d="M12.6667 18.9994H27.6667" stroke="#667285" stroke-width="2.2" stroke-linecap="round"/>
<path d="M12.6667 22.9994H27.6667" stroke="#667285" stroke-width="2.2" stroke-linecap="round"/>
<path d="M12.6667 26.9994H27.6667" stroke="#667285" stroke-width="2.2" stroke-linecap="round"/>
<path d="M12.6667 30.9994H21.6667" stroke="#667285" stroke-width="2.2" stroke-linecap="round"/>
<path d="M23.3334 3.78247V10.6667C23.3334 11.6001 23.3334 12.0668 23.5151 12.4234C23.6749 12.737 23.9298 12.9919 24.2434 13.1517C24.5999 13.3334 25.0667 13.3334 26.0001 13.3334H32.8843M33.1953 14.9994C33.1953 13.9994 32.8708 13.2393 32.5966 12.7919C32.2874 12.2874 31.855 11.855 30.9903 10.9902L25.6766 5.67652C24.8118 4.81176 24.3794 4.37938 23.8748 4.07017C23.4275 3.79603 22.9398 3.59401 22.4296 3.47152C21.8541 3.33337 21.2427 3.33337 20.0197 3.33337H14.6667C11.8665 3.33337 10.4664 3.33337 9.3968 3.87834C8.45599 4.35771 7.69108 5.12261 7.21172 6.06342C6.66675 7.13298 6.66675 8.18996 6.66675 10.9902V31.9994C6.66675 31.9994 6.66675 32.8671 7.21172 33.9367C7.69108 34.8775 8.45599 35.6424 9.3968 36.1217C10.4664 36.6667 11.8665 36.6667 14.6667 36.6667H25.3334C28.1337 36.6667 29.5338 36.6667 30.6034 36.1217C31.5442 35.6424 32.3091 34.8775 32.7884 33.9367C33.3334 32.8671 33.3334 30.9994 33.3334 30.9994L33.2643 23.4994L33.1953 14.9994Z" stroke="#BEC4CC" stroke-width="2.2" stroke-linecap="round" stroke-linejoin="round"/>
</svg>
