<svg width="40" height="40" viewBox="0 0 40 40" fill="none" xmlns="http://www.w3.org/2000/svg">
<path d="M9 32C9 32 9 32.8677 9.54497 33.9373C10.0243 34.8781 10.7892 35.643 11.73 36.1224C12.7996 36.6673 14.1997 36.6673 17 36.6673H27.6667C30.4669 36.6673 31.8671 36.6673 32.9366 36.1224C33.8774 35.643 34.6423 34.8781 35.1217 33.9373C35.6667 32.8677 35.6667 31 35.6667 31L35.5976 23.5L35.5285 15C35.5285 14 35.204 13.2399 34.9299 12.7926C34.6207 12.288 34.1883 11.8556 33.3235 10.9908L28.0098 5.67713C27.1451 4.81237 26.7127 4.37999 26.2081 4.07078C25.7607 3.79664 25.273 3.59462 24.7628 3.47213C24.1874 3.33398 23.5759 3.33398 22.353 3.33398H17C14.1997 3.33398 12.7996 3.33398 11.73 3.87895C10.7892 4.35832 10.0243 5.12322 9.54497 6.06403C9 7.13359 9 8.19058 9 10.9908V14.5M25.6667 3.78308V10.6673C25.6667 11.6007 25.6667 12.0675 25.8483 12.424C26.0081 12.7376 26.2631 12.9925 26.5767 13.1523C26.9332 13.334 27.3999 13.334 28.3333 13.334H35.2176" stroke="#BEC4CC" stroke-width="2.2" stroke-linecap="round" stroke-linejoin="round"/>
<rect x="3" y="17" width="29" height="13" rx="2" fill="#15AA51"/>
<path d="M10.1237 28L8.55167 25.756L8.07167 25.084L5.50367 21.652H7.56767L9.10367 23.824L9.63167 24.544L12.1637 28H10.1237ZM5.47967 28L8.01167 24.532L8.94767 25.648L7.48367 28H5.47967ZM9.55967 25.144L8.64767 24.028L10.0037 21.652H12.0077L9.55967 25.144ZM13.2292 28V19.12H14.9332V28H13.2292ZM18.7985 28.12C18.2065 28.12 17.6785 28.024 17.2145 27.832C16.7585 27.632 16.3905 27.36 16.1105 27.016L17.1665 26.104C17.4145 26.368 17.6905 26.56 17.9945 26.68C18.2985 26.792 18.6025 26.848 18.9065 26.848C19.0265 26.848 19.1345 26.836 19.2305 26.812C19.3345 26.78 19.4225 26.74 19.4945 26.692C19.5665 26.636 19.6185 26.572 19.6505 26.5C19.6905 26.42 19.7105 26.336 19.7105 26.248C19.7105 26.072 19.6385 25.932 19.4945 25.828C19.4145 25.788 19.2905 25.74 19.1225 25.684C18.9545 25.62 18.7385 25.552 18.4745 25.48C18.0665 25.376 17.7185 25.256 17.4305 25.12C17.1505 24.976 16.9265 24.816 16.7585 24.64C16.6145 24.472 16.5025 24.292 16.4225 24.1C16.3505 23.9 16.3145 23.68 16.3145 23.44C16.3145 23.152 16.3785 22.892 16.5065 22.66C16.6345 22.42 16.8105 22.216 17.0345 22.048C17.2665 21.88 17.5305 21.752 17.8265 21.664C18.1225 21.568 18.4345 21.52 18.7625 21.52C19.0905 21.52 19.4105 21.56 19.7225 21.64C20.0345 21.72 20.3225 21.836 20.5865 21.988C20.8585 22.132 21.0945 22.304 21.2945 22.504L20.3825 23.512C20.2385 23.376 20.0745 23.252 19.8905 23.14C19.7145 23.028 19.5305 22.94 19.3385 22.876C19.1465 22.812 18.9745 22.78 18.8225 22.78C18.6865 22.78 18.5625 22.792 18.4505 22.816C18.3465 22.84 18.2585 22.876 18.1865 22.924C18.1145 22.972 18.0585 23.036 18.0185 23.116C17.9865 23.188 17.9705 23.268 17.9705 23.356C17.9705 23.444 17.9905 23.528 18.0305 23.608C18.0785 23.688 18.1425 23.756 18.2225 23.812C18.3105 23.86 18.4385 23.916 18.6065 23.98C18.7825 24.044 19.0185 24.116 19.3145 24.196C19.6985 24.3 20.0225 24.416 20.2865 24.544C20.5585 24.672 20.7745 24.82 20.9345 24.988C21.0705 25.132 21.1705 25.296 21.2345 25.48C21.2985 25.664 21.3305 25.868 21.3305 26.092C21.3305 26.484 21.2185 26.836 20.9945 27.148C20.7785 27.452 20.4785 27.692 20.0945 27.868C19.7105 28.036 19.2785 28.12 18.7985 28.12ZM26.4948 28L24.9228 25.756L24.4428 25.084L21.8748 21.652H23.9388L25.4748 23.824L26.0028 24.544L28.5348 28H26.4948ZM21.8508 28L24.3828 24.532L25.3188 25.648L23.8548 28H21.8508ZM25.9308 25.144L25.0188 24.028L26.3748 21.652H28.3788L25.9308 25.144Z" fill="white"/>
</svg>
