<svg width="24" height="24" viewBox="0 0 24 24" fill="none" xmlns="http://www.w3.org/2000/svg">
<path d="M14.21 1.00007C14.7868 1.00007 15.2352 0.993953 15.668 1.09577L15.9355 1.16999C16.0444 1.20469 16.1509 1.24618 16.2559 1.29109C16.2966 1.30661 16.3361 1.32431 16.374 1.3448C16.482 1.39569 16.5889 1.44921 16.6914 1.51081L16.8311 1.60163C17.1526 1.82144 17.4385 2.10767 17.7949 2.4571L20.5049 5.11433L20.7949 5.39948C21.0688 5.67226 21.2962 5.91695 21.4727 6.19929L21.6094 6.43952C21.6218 6.46341 21.6317 6.4886 21.6436 6.51277C21.6646 6.55038 21.6831 6.58954 21.6992 6.62995C21.783 6.81819 21.8512 7.01322 21.9004 7.21394L21.9355 7.37702C22.0052 7.75991 22 8.16466 22 8.6573V14.6671C22 15.3501 22.0009 15.9237 21.9619 16.3917C21.9269 16.8118 21.8555 17.2143 21.6875 17.5987L21.6094 17.7628C21.3093 18.3402 20.8541 18.8203 20.2988 19.1544L20.0547 19.2891C19.6193 19.5066 19.1603 19.5911 18.6748 19.63C18.64 19.6327 18.6044 19.6334 18.5684 19.6358C18.5334 20.1176 18.4552 20.56 18.2725 20.9649L18.209 21.0958C17.9088 21.6734 17.454 22.1543 16.8984 22.4884L16.6543 22.6221C16.2189 22.8396 15.7599 22.9241 15.2744 22.963C14.8001 23.0009 14.2173 23.0001 13.5195 23.0001H8.08008C7.38219 23.0001 6.79961 23.001 6.3252 22.963C5.90022 22.9289 5.49569 22.8598 5.10938 22.6973L4.94531 22.6221C4.36238 22.3309 3.87163 21.8867 3.52832 21.338L3.39063 21.0958C3.16543 20.6623 3.0781 20.2048 3.03809 19.7247C2.99913 19.2567 3 18.6831 3 18.0001V9.33308C3 8.65007 2.9991 8.0764 3.03809 7.60847C3.07812 7.12821 3.16532 6.67092 3.39063 6.23738L3.52832 5.99616C3.87167 5.44723 4.36217 5.00231 4.94531 4.71101L5.07715 4.65046C5.48841 4.47197 5.93847 4.39578 6.43262 4.36238C6.43471 4.33305 6.4361 4.304 6.43848 4.27546C6.4785 3.79524 6.56575 3.33788 6.79102 2.90437L6.92871 2.66218C7.27204 2.11354 7.76279 1.66919 8.34571 1.378L8.50977 1.3028C8.89601 1.14038 9.3007 1.07121 9.72559 1.03718C10.1999 0.999202 10.7827 1.00007 11.4805 1.00007H14.21ZM6.40039 6.37214C6.17363 6.39355 6.03084 6.42413 5.92383 6.46394L5.83887 6.50007C5.58222 6.6283 5.3703 6.82223 5.22363 7.05671L5.16504 7.15925C5.11245 7.26043 5.06071 7.42108 5.03125 7.77448C5.00078 8.14013 5 8.61643 5 9.33308V18.0001C5 18.7167 5.00081 19.193 5.03125 19.5587C5.06069 19.912 5.11248 20.0727 5.16504 20.1739L5.22363 20.2764C5.37027 20.511 5.58219 20.7048 5.83887 20.8331L5.93555 20.8731C6.04712 20.9123 6.21185 20.9469 6.48535 20.9688C6.86134 20.9989 7.35003 21.0001 8.08008 21.0001H13.5195C14.2498 21.0001 14.7392 20.9989 15.1152 20.9688C15.4799 20.9396 15.6507 20.888 15.7607 20.8331L15.8682 20.7745C16.1116 20.6281 16.3069 20.4195 16.4346 20.1739L16.4707 20.0948C16.5078 19.9988 16.5364 19.8703 16.5576 19.6671H11.4805C10.7827 19.6671 10.1999 19.6679 9.72559 19.63C9.30074 19.5959 8.89598 19.5267 8.50977 19.3643L8.34571 19.2891C7.76262 18.9979 7.27205 18.5528 6.92871 18.004L6.79102 17.7628C6.5657 17.3292 6.4785 16.872 6.43848 16.3917C6.39949 15.9237 6.40039 15.3501 6.40039 14.6671V6.37214ZM11.4805 3.00007C10.7502 3.00007 10.2608 3.0012 9.88477 3.03132C9.61101 3.05326 9.44651 3.08781 9.33496 3.12702L9.23926 3.16706C8.98254 3.2953 8.77071 3.48916 8.62403 3.7237L8.56543 3.82624C8.51285 3.92743 8.4611 4.08807 8.43164 4.44148C8.40119 4.80714 8.40039 5.28343 8.40039 6.00007V14.6671C8.40039 15.3837 8.40117 15.86 8.43164 16.2257C8.46109 16.579 8.51285 16.7397 8.56543 16.8409L8.62403 16.9434C8.7707 17.1779 8.98262 17.3719 9.23926 17.5001L9.33496 17.5401C9.44651 17.5793 9.61107 17.6139 9.88477 17.6358C10.2608 17.6659 10.7502 17.6671 11.4805 17.6671H16.9199C17.65 17.6671 18.1387 17.6659 18.5147 17.6358C18.8796 17.6066 19.0511 17.555 19.1611 17.5001L19.2676 17.4405C19.511 17.2942 19.7073 17.0865 19.835 16.8409L19.874 16.751C19.9121 16.6467 19.9467 16.4903 19.9688 16.2257C19.9992 15.86 20 15.3837 20 14.6671V8.6573C20 8.3429 19.9976 8.14069 19.9922 8.00007H17.2598C17.0381 8.00007 16.8129 8.0007 16.6221 7.98542C16.4705 7.97328 16.2921 7.94905 16.1055 7.88386L15.917 7.80378C15.614 7.65235 15.3577 7.42051 15.1777 7.13288L15.1055 7.00593C14.9729 6.75068 14.9319 6.49928 14.915 6.29695C14.8992 6.10697 14.9004 5.8834 14.9004 5.66706V3.00691C14.7536 3.00093 14.5427 3.00007 14.21 3.00007H11.4805ZM16.9004 5.66706C16.9004 5.78588 16.9001 5.87948 16.9014 5.96003C16.9016 5.97272 16.9021 5.98479 16.9023 5.99616C16.9863 5.99829 17.0983 6.00007 17.2598 6.00007H18.5508L16.9004 4.38093V5.66706Z" fill="black"/>
</svg>
