<svg width="24" height="24" viewBox="0 0 24 24" fill="none" xmlns="http://www.w3.org/2000/svg">
<path d="M14.0162 2.26956V6.4001C14.0162 6.96015 14.0162 7.24018 14.1252 7.45409C14.2211 7.64225 14.374 7.79523 14.5622 7.89111C14.7761 8.0001 15.0561 8.0001 15.6162 8.0001H19.7467M8.80017 15H15.2002M15.2002 15L12.5 17.5M15.2002 15L12.5 12.5M14.0002 2H8.80017C7.12001 2 6.27993 2 5.6382 2.32698C5.07371 2.6146 4.61477 3.07354 4.32715 3.63803C4.00017 4.27976 4.00017 5.11984 4.00017 6.8V17.2C4.00017 18.8802 4.00017 19.7202 4.32715 20.362C4.61477 20.9265 5.07371 21.3854 5.6382 21.673C6.27993 22 7.12001 22 8.80017 22H15.2002C16.8803 22 17.7204 22 18.3621 21.673C18.9266 21.3854 19.3856 20.9265 19.6732 20.362C20.0002 19.7202 20.0002 18.8802 20.0002 17.2V8L14.0002 2Z" stroke="black" stroke-width="2" stroke-linecap="round" stroke-linejoin="round"/>
</svg>
