<svg width="60" height="40" viewBox="0 0 60 40" fill="none" xmlns="http://www.w3.org/2000/svg">
<path fill-rule="evenodd" clip-rule="evenodd" d="M4.07539 0L14.0995 2.93663L31.0748 2.5403C32.9327 2.53774 34.182 3.82967 34.8229 6.4161C35.1921 7.90663 38.1341 5.17726 38.5471 5.17726C38.96 5.17726 41.9828 7.22411 41.9828 7.66486C41.9828 8.10562 39.8368 13.2815 40.4655 13.6232C41.0941 13.9649 43.5542 15.2957 44.0687 14.8299C44.5832 14.3641 50.3852 9.0207 51.4308 8.41852C52.4764 7.81634 54.953 7.8388 55.5082 7.12745C56.0633 6.4161 58.3673 3.74161 59.5974 5.6918C60.8275 7.64199 58.9262 10.5261 58.0671 11.5837C57.208 12.6412 60.2811 12.8525 59.1741 13.6232C58.0671 14.3939 52.7806 15.1722 52.7806 20.0586C52.7806 21.6768 54.8464 22.7238 54.4394 23.2125C54.0324 23.7012 49.8056 28.7364 49.3274 29.5239C48.8493 30.3113 49.0016 32.6389 49.3274 34.2767C49.6532 35.9145 51.4429 38.5172 50.3852 38.5172C49.3274 38.5172 47.7463 38.5325 47.168 38.1816C46.5897 37.8306 45.6743 34.2767 44.8715 34.2767C44.0687 34.2767 37.8429 34.6693 37.2129 34.6693C36.583 34.6693 30.4863 37.846 29.474 38.1816C28.4618 38.5172 28.4982 39.9181 27.7439 39.9181C26.9897 39.9181 25.1779 40.3014 25.1779 39.4093C25.1779 38.5172 24.2994 36.2564 23.6738 35.4628C23.0483 34.6692 14.8445 32.0963 14.0995 31.6296C13.3546 31.1628 9.86765 30.8662 9.19993 30.8662C8.53222 30.8662 4.47227 27.5094 4.07539 26.692C3.67852 25.8745 0 16.9531 0 15.4996C0 14.5307 1.35846 9.36415 4.07539 0Z" fill="#212F45"/>
</svg>
