<svg width="60" height="60" viewBox="0 0 60 60" fill="none" xmlns="http://www.w3.org/2000/svg">
<path d="M18.616 55.6279C18.6589 55.6262 18.7003 55.6124 18.7356 55.5881L23.2234 52.5412C23.2589 52.5188 23.2867 52.486 23.303 52.4473C23.3193 52.4086 23.3233 52.3659 23.3145 52.3248L22.2438 46.8063H44.5913C44.6212 46.8072 44.6511 46.8016 44.6786 46.7898C44.7062 46.778 44.7308 46.7603 44.7507 46.7379C44.7712 46.7159 44.7868 46.6898 44.7966 46.6614C44.8064 46.6329 44.8102 46.6027 44.8077 46.5728L44.0104 37.6543L46.7042 32.58C46.7222 32.5488 46.7316 32.5134 46.7316 32.4775C46.7316 32.4415 46.7222 32.4061 46.7042 32.3749L43.1903 26.4749L39.2037 4.54312C39.193 4.49292 39.1648 4.44818 39.1241 4.41689C39.0834 4.38559 39.0329 4.36978 38.9816 4.37226H16.2013C16.1468 4.37209 16.0942 4.39253 16.054 4.42949C16.0139 4.46645 15.9892 4.51721 15.9849 4.57159L13.2684 40.0177V53.6461C13.2693 53.6912 13.2839 53.7351 13.3104 53.7717C13.3368 53.8083 13.3738 53.836 13.4164 53.8511L18.542 55.6166L18.616 55.6279Z" fill="#212F45"/>
</svg>
