<svg width="60" height="60" viewBox="0 0 60 60" fill="none" xmlns="http://www.w3.org/2000/svg">
<path d="M56.734 35.9476H48.3254L46.6059 16.2231C46.6028 16.1677 46.5783 16.1157 46.5374 16.0782C46.4966 16.0407 46.4427 16.0206 46.3873 16.0222H3.25105C3.19306 16.0222 3.13745 16.0452 3.09645 16.0862C3.05544 16.1272 3.03241 16.1828 3.03241 16.2408V25.3408C3.03264 25.3752 3.04074 25.409 3.05611 25.4397C3.07148 25.4705 3.09369 25.4973 3.12105 25.5181C3.15011 25.5379 3.18305 25.5513 3.21769 25.5574C3.25233 25.5635 3.28787 25.5622 3.32195 25.5535L6.14058 24.6258L6.19376 24.5962L13.0246 19.8158L21.1496 20.259L29.3928 26.9894L28.211 30.8658C28.2051 30.895 28.2051 30.9252 28.211 30.9544L28.6187 35.9003C28.6239 35.9473 28.6439 35.9915 28.6757 36.0265C28.7075 36.0616 28.7496 36.0856 28.796 36.0953L33.6768 37.0703L38.6759 41.6735C38.7075 41.7038 38.7475 41.724 38.7907 41.7314C38.8339 41.7388 38.8783 41.733 38.9182 41.7148C38.9585 41.6962 38.9923 41.666 39.0154 41.6282C39.0386 41.5903 39.05 41.5464 39.0482 41.5021L38.7114 35.8648L38.3746 30.653L39.8577 22.7822L42.7118 22.7467L42.9186 26.1976L42.4223 37.2476C42.4223 37.2878 42.4327 37.3274 42.4523 37.3626C42.472 37.3978 42.5003 37.4273 42.5345 37.4485L45.5304 39.2212L45.95 43.7771C45.9524 43.8077 45.9617 43.8373 45.977 43.8639C45.9923 43.8905 46.0134 43.9133 46.0386 43.9307C46.0752 43.9609 46.1211 43.9776 46.1686 43.978H46.1864L54.205 42.4594C54.2408 42.4541 54.2746 42.4392 54.3026 42.4163C54.3307 42.3935 54.3521 42.3634 54.3645 42.3294L56.9409 36.2608C56.9584 36.2281 56.9676 36.1915 56.9676 36.1544C56.9676 36.1173 56.9584 36.0807 56.9409 36.048C56.9178 36.0151 56.8867 35.9885 56.8505 35.971C56.8143 35.9534 56.7742 35.9453 56.734 35.9476Z" fill="#212F45"/>
</svg>
