<svg width="60" height="60" viewBox="0 0 60 60" fill="none" xmlns="http://www.w3.org/2000/svg">
<path d="M41.5911 53.1222V42.4486C41.5911 42.4066 41.5778 42.3657 41.5532 42.3316C41.5286 42.2975 41.4939 42.272 41.454 42.2588L30.1371 38.7308L23.9671 23.2057L24.8953 8.73522C24.8994 8.69106 24.888 8.64684 24.8629 8.61023C24.8379 8.57363 24.8008 8.54695 24.7582 8.53482L18.662 6.68383C18.6326 6.67579 18.6017 6.67459 18.5717 6.68031C18.5417 6.68603 18.5134 6.69852 18.489 6.71684C18.4646 6.73515 18.4447 6.7588 18.4308 6.78598C18.4169 6.81316 18.4094 6.84316 18.4089 6.87367V53.1222C18.4089 53.1744 18.4292 53.2246 18.4657 53.262C18.5021 53.2995 18.5518 53.3212 18.604 53.3226H41.3749C41.4025 53.3247 41.4303 53.3212 41.4565 53.3121C41.4826 53.303 41.5066 53.2886 41.527 53.2698C41.5473 53.2509 41.5635 53.2281 41.5745 53.2027C41.5856 53.1773 41.5912 53.1499 41.5911 53.1222Z" fill="#212F45"/>
</svg>
