<svg width="60" height="60" viewBox="0 0 60 60" fill="none" xmlns="http://www.w3.org/2000/svg">
<path d="M17.1726 29.2229H14.6272C14.5958 29.2228 14.5648 29.2297 14.5363 29.243C14.5079 29.2562 14.4827 29.2756 14.4626 29.2997C14.4445 29.3247 14.4317 29.3532 14.4251 29.3835C14.4185 29.4137 14.4182 29.4449 14.4242 29.4752L19.8333 52.834C19.8397 52.8638 19.853 52.8916 19.872 52.9154C19.8911 52.9392 19.9153 52.9583 19.943 52.9711L22.4116 54.2054C22.4422 54.2136 22.4743 54.2136 22.5049 54.2054H22.5707C22.6235 54.1857 22.6667 54.1465 22.6914 54.0957L25.9226 46.7063L29.2141 42.4822L31.8857 42.6303C31.9372 42.6349 31.9885 42.6191 32.0285 42.5863C32.0686 42.5534 32.0941 42.5062 32.0996 42.4548L32.9993 35.57L38.9953 36.925C39.026 36.9314 39.0577 36.9307 39.0881 36.9231C39.1185 36.9155 39.1468 36.9012 39.1709 36.8811L45.5016 31.7848C45.5333 31.7602 45.557 31.7267 45.5697 31.6886C45.5824 31.6505 45.5835 31.6095 45.5729 31.5708L43.7077 25.2347C43.6984 25.2044 43.6821 25.1767 43.6602 25.1539C43.6383 25.131 43.6114 25.1136 43.5815 25.103L37.975 22.98L35.062 9.34215C35.054 9.30787 35.0378 9.27601 35.0149 9.24927C34.992 9.22254 34.963 9.20171 34.9303 9.18855L25.8293 5.79281C25.8059 5.787 25.7814 5.787 25.758 5.79281H23.7392C23.7005 5.79279 23.6625 5.80356 23.6296 5.82391C23.5966 5.84426 23.57 5.87338 23.5527 5.90801L18.1491 17.1705C18.1359 17.1988 18.129 17.2297 18.129 17.261C18.129 17.2923 18.1359 17.3232 18.1491 17.3515L19.7949 22.3436L17.9626 26.3209L17.1726 29.2229Z" fill="#212F45"/>
</svg>
