<svg width="45" height="44" viewBox="0 0 45 44" fill="none" xmlns="http://www.w3.org/2000/svg">
<path d="M41.4253 24.2555C41.41 24.2281 41.3877 24.2052 41.3606 24.1891C41.3336 24.1731 41.3028 24.1645 41.2714 24.1642H38.5598C38.533 24.1642 38.5065 24.1702 38.4823 24.1819C38.4582 24.1935 38.437 24.2105 38.4203 24.2315L35.9299 27.4143H34.0067L37.8242 20.64C37.8356 20.609 37.8356 20.5749 37.8242 20.5439L37.4636 14.7745C37.4605 14.7413 37.4486 14.7096 37.4292 14.6825C37.4097 14.6555 37.3834 14.6341 37.353 14.6206L28.5258 10.8224C28.5029 10.8129 28.4784 10.808 28.4537 10.808C28.4289 10.808 28.4044 10.8129 28.3815 10.8224C28.3353 10.8454 28.2992 10.8848 28.2806 10.933L25.8334 18.4717L23.5016 16.9716C23.4655 16.9485 23.4223 16.9392 23.3799 16.9454C23.3375 16.9516 23.2988 16.9728 23.2708 17.0053L20.0159 20.616C19.9983 20.6352 19.9852 20.6582 19.9777 20.6832C19.9703 20.7081 19.9685 20.7345 19.9726 20.7602L20.5063 24.1257L19.4389 27.0826C19.4221 27.1242 19.4221 27.1707 19.4389 27.2124L21.7948 32.8328L17.9966 43.2321C17.9827 43.258 17.9754 43.2869 17.9754 43.3163C17.9754 43.3456 17.9827 43.3745 17.9966 43.4004C18.0121 43.4244 18.0335 43.4441 18.0587 43.4576C18.084 43.471 18.1122 43.4778 18.1408 43.4773H41.0887C41.1238 43.4771 41.1581 43.4665 41.1872 43.4468C41.2163 43.4271 41.2389 43.3993 41.2522 43.3668L44.1369 36.6887C44.1414 36.6648 44.1414 36.6404 44.1369 36.6165V29.0394C44.1446 29.0094 44.1446 28.978 44.1369 28.948L41.4253 24.2555Z" fill="#212F45"/>
<path d="M12.2223 18.2746C12.2342 18.3034 12.2532 18.3287 12.2776 18.3481C12.302 18.3674 12.331 18.3802 12.3617 18.3852H12.3713C12.3985 18.3843 12.4251 18.3774 12.4492 18.3649C12.4733 18.3524 12.4943 18.3347 12.5107 18.3131L18.2657 11.1494L26.4824 9.183L34.9394 9.72148C34.964 9.72496 34.9892 9.7224 35.0126 9.71402C35.0361 9.70565 35.0571 9.69171 35.074 9.6734C35.0922 9.65707 35.1068 9.63706 35.1168 9.61469C35.1267 9.59231 35.1318 9.56807 35.1317 9.54359V7.55794C35.1315 7.52282 35.1208 7.48856 35.1011 7.45947C35.0815 7.43038 35.0536 7.40776 35.0211 7.39448L29.9681 5.22614C29.9293 5.21178 29.8866 5.21178 29.8479 5.22614L26.9006 6.06751L24.9775 3.46165C24.9567 3.43392 24.9286 3.41249 24.8964 3.39976C24.8641 3.38703 24.829 3.38349 24.7948 3.38954L19.2129 4.49534C19.1939 4.49117 19.1742 4.49117 19.1552 4.49534L15.9964 6.41848L10.4914 3.428C10.4648 3.41369 10.4351 3.4062 10.4049 3.4062C10.3747 3.4062 10.345 3.41369 10.3184 3.428L7.59231 4.87035L7.98175 3.06741L10.3616 0.298087C10.3844 0.272088 10.3988 0.239882 10.4031 0.20561C10.4074 0.171338 10.4013 0.136568 10.3857 0.105773C10.3712 0.0745235 10.3481 0.0480118 10.3192 0.0292964C10.2903 0.0105811 10.2567 0.000424937 10.2222 0H6.6019C6.57557 4.65346e-05 6.54955 0.00563596 6.52553 0.0164047C6.5015 0.0271734 6.48002 0.04288 6.46247 0.0625021L0.0439849 7.43775C0.0250163 7.45899 0.0115815 7.48458 0.00487217 7.51226C-0.00183718 7.53993 -0.00161381 7.56884 0.00552212 7.59641C0.0111957 7.6231 0.0227778 7.64819 0.0394177 7.66982C0.0560575 7.69145 0.0773324 7.70908 0.101679 7.72141L9.90008 12.385L12.2223 18.2746Z" fill="#212F45"/>
</svg>
