<svg width="60" height="60" viewBox="0 0 60 60" fill="none" xmlns="http://www.w3.org/2000/svg">
<path d="M17.2249 52.0445H42.7848C42.8087 52.0445 42.8324 52.0397 42.8544 52.0304C42.8765 52.0211 42.8964 52.0075 42.9131 51.9904C42.9298 51.9732 42.9429 51.9529 42.9516 51.9306C42.9603 51.9084 42.9644 51.8845 42.9638 51.8606V36.3999C42.9636 36.3511 42.9445 36.3043 42.9106 36.2692C42.8713 36.2364 42.8214 36.2192 42.7702 36.2208L35.3617 36.758L28.6741 29.0155L30.179 23.3829C30.1876 23.3544 30.1885 23.3243 30.1817 23.2954C30.1749 23.2665 30.1606 23.24 30.1403 23.2183L22.4463 14.5371L22.8624 8.14955C22.8655 8.12402 22.8628 8.09811 22.8544 8.0738C22.846 8.04948 22.8322 8.0274 22.814 8.00922C22.779 7.97525 22.7322 7.95617 22.6834 7.95599H19.0734C19.0499 7.9533 19.0261 7.95532 19.0033 7.96191C18.9806 7.9685 18.9593 7.97955 18.9409 7.9944C18.9224 8.00925 18.9071 8.02762 18.8958 8.04844C18.8845 8.06926 18.8775 8.09211 18.875 8.11568L17.0459 26.6976C17.0366 26.7275 17.0366 26.7596 17.0459 26.7895L18.875 30.7914L17.0362 39.8066V51.8606C17.0355 51.8854 17.0399 51.91 17.0492 51.933C17.0585 51.9559 17.0725 51.9767 17.0902 51.994C17.108 52.0113 17.1291 52.0247 17.1523 52.0334C17.1755 52.0421 17.2002 52.0459 17.2249 52.0445Z" fill="#212F45"/>
</svg>
