<svg width="60" height="60" viewBox="0 0 60 60" fill="none" xmlns="http://www.w3.org/2000/svg">
<path d="M56.6168 22.3711H18.3778C18.3193 22.3711 18.2631 22.3939 18.2211 22.4347C18.1792 22.4755 18.1549 22.5311 18.1534 22.5896V24.2016H7.90275C7.85774 24.2002 7.81346 24.2133 7.77632 24.2387C7.73918 24.2642 7.71108 24.3008 7.69609 24.3433L3.20849 36.1527C3.19247 36.1827 3.18408 36.2162 3.18408 36.2502C3.18408 36.2842 3.19247 36.3176 3.20849 36.3476C3.22649 36.3759 3.25077 36.3997 3.27944 36.4171C3.30811 36.4345 3.34041 36.4451 3.37382 36.448L15.5435 37.6289L38.4893 36.448C38.5397 36.4434 38.5873 36.4227 38.6251 36.3889L40.9279 34.2514L44.0575 32.7693L44.1165 32.728L47.9132 29.0966L51.8694 27.2838L51.9285 27.2425L56.7467 22.7549C56.7791 22.7247 56.8015 22.6854 56.811 22.6421C56.8204 22.5989 56.8166 22.5538 56.7999 22.5128C56.787 22.4736 56.7627 22.4392 56.7301 22.4139C56.6974 22.3887 56.658 22.3737 56.6168 22.3711Z" fill="#212F45"/>
</svg>
