<svg width="60" height="60" viewBox="0 0 60 60" fill="none" xmlns="http://www.w3.org/2000/svg">
<path d="M42.3634 9.68092C42.3475 9.65997 42.327 9.64296 42.3035 9.63119C42.2799 9.61942 42.254 9.61321 42.2277 9.61304H17.7679C17.7448 9.61293 17.722 9.61772 17.701 9.62708C17.6799 9.63644 17.6611 9.65016 17.6457 9.66734C17.6297 9.68316 17.6173 9.7023 17.6095 9.72341C17.6017 9.74452 17.5986 9.76709 17.6004 9.78953L19.5011 50.224C19.5034 50.268 19.5226 50.3095 19.5546 50.3398C19.5866 50.3701 19.629 50.387 19.6731 50.3869H30C30.0325 50.3865 30.0641 50.377 30.0913 50.3594C30.1186 50.3417 30.1403 50.3168 30.1539 50.2874L32.6022 45.1239C32.6112 45.0944 32.6112 45.0629 32.6022 45.0334L31.8057 37.7022L35.8469 23.9495L39.5803 22.3521C39.6128 22.3386 39.6399 22.3147 39.6573 22.2842L42.3725 17.9353C42.388 17.9084 42.3961 17.878 42.3961 17.847C42.3961 17.816 42.388 17.7856 42.3725 17.7588L40.7841 15.1069L42.3951 9.83026C42.4014 9.80458 42.4018 9.77783 42.3963 9.75199C42.3908 9.72614 42.3796 9.70185 42.3634 9.68092Z" fill="#212F45"/>
</svg>
