<svg width="60" height="60" viewBox="0 0 60 60" fill="none" xmlns="http://www.w3.org/2000/svg">
<path d="M4.6666 33.9315L16.1583 34.6618V41.2624C16.1597 41.3185 16.183 41.3718 16.2232 41.4109C16.2634 41.45 16.3173 41.4719 16.3734 41.4719H55.5299C55.5679 41.4726 55.6053 41.4629 55.6382 41.444C55.6711 41.425 55.6982 41.3975 55.7167 41.3643C55.7363 41.3329 55.7466 41.2966 55.7466 41.2596C55.7466 41.2226 55.7363 41.1863 55.7167 41.1549L53.124 36.728L52.5862 33.3315L48.9746 23.1418C48.9632 23.1138 48.9463 23.0884 48.9249 23.067C48.9035 23.0456 48.878 23.0287 48.85 23.0173L43.4269 20.9964C43.3827 20.9821 43.3352 20.9821 43.291 20.9964L38.9038 22.355L29.4104 18.5282H29.3312H4.46281C4.43535 18.5281 4.40815 18.5336 4.38286 18.5443C4.35757 18.555 4.3347 18.5707 4.31563 18.5905C4.27589 18.6315 4.25357 18.6862 4.25336 18.7433L4.46281 33.7277C4.46783 33.7801 4.49091 33.8291 4.5281 33.8662C4.56528 33.9034 4.61425 33.9265 4.6666 33.9315Z" fill="#212F45"/>
</svg>
