<svg width="60" height="60" viewBox="0 0 60 60" fill="none" xmlns="http://www.w3.org/2000/svg">
<path d="M36.3338 32.5511C36.3626 32.5356 36.3868 32.5127 36.4037 32.4847C36.4207 32.4567 36.4299 32.4247 36.4303 32.392V27.7662L50.4907 15.8715C50.5148 15.8502 50.5327 15.8229 50.5429 15.7924C50.5531 15.762 50.555 15.7294 50.5486 15.6979C50.5429 15.6665 50.5286 15.6372 50.5073 15.6134C50.486 15.5896 50.4586 15.5721 50.428 15.5628L47.4423 14.5644C47.4138 14.5572 47.384 14.5572 47.3555 14.5644L41.5914 15.5484L28.9635 12.6543L19.4034 8.1443C19.3779 8.13924 19.3517 8.13924 19.3262 8.1443H9.63099C9.60715 8.14366 9.58342 8.1478 9.56121 8.15648C9.53899 8.16516 9.51875 8.1782 9.50166 8.19484C9.48457 8.21148 9.47099 8.23137 9.46172 8.25334C9.45246 8.27532 9.44768 8.29892 9.44769 8.32277V15.2155L11.98 34.1091L11.7967 51.6763C11.7974 51.7248 11.8163 51.7713 11.8498 51.8065C11.8847 51.8404 11.9314 51.8594 11.98 51.8596H42.4982C42.5342 51.8589 42.5693 51.8476 42.5989 51.8271C42.6285 51.8066 42.6515 51.7778 42.6649 51.7444C42.6782 51.7109 42.6815 51.6743 42.6741 51.639C42.6668 51.6037 42.6492 51.5714 42.6236 51.546L33.0779 42.1836V34.3117L36.3338 32.5511Z" fill="#212F45"/>
</svg>
