<svg width="45" height="35" viewBox="0 0 45 35" fill="none" xmlns="http://www.w3.org/2000/svg">
<path d="M36.4203 20.4104C36.4003 20.3902 36.3765 20.3742 36.3502 20.3635C36.3239 20.3528 36.2957 20.3476 36.2674 20.3481H33.7582C33.7242 20.3469 33.6905 20.3541 33.6599 20.3689C33.6293 20.3837 33.6028 20.4057 33.5826 20.433C33.5677 20.4619 33.5599 20.494 33.5599 20.5265C33.5599 20.559 33.5677 20.5911 33.5826 20.62L34.5002 23.5596L30.8639 25.7912C30.8377 25.8082 30.8155 25.8307 30.7989 25.8571C30.7823 25.8835 30.7716 25.9132 30.7676 25.9441C30.7627 25.9745 30.7648 26.0055 30.7736 26.0349C30.7824 26.0644 30.7978 26.0914 30.8185 26.1141L33.2484 28.7252L32.008 31.8914C31.9944 31.9328 31.993 31.9773 32.0041 32.0195C32.0151 32.0617 32.0381 32.0998 32.0703 32.1293L34.5851 34.2533C34.6232 34.2855 34.6712 34.3035 34.7211 34.3043C34.7587 34.3037 34.7956 34.294 34.8287 34.2759L44.1064 28.8611C44.1342 28.8448 44.1581 28.8227 44.1767 28.7963C44.1953 28.7699 44.208 28.7399 44.214 28.7082C44.2178 28.6766 44.2147 28.6445 44.2049 28.6142C44.1951 28.5839 44.1789 28.5561 44.1574 28.5326L36.4203 20.4104Z" fill="#212F45"/>
<path d="M32.8292 16.9099V14.0099C32.8294 13.9646 32.8145 13.9204 32.7868 13.8845C32.7591 13.8486 32.7202 13.823 32.6763 13.8117L28.0828 12.441C28.0386 12.4288 27.9918 12.431 27.949 12.4473C27.9062 12.4636 27.8697 12.4931 27.8449 12.5316L26.0324 15.222C26.016 15.2457 26.0046 15.2725 25.9987 15.3007C25.9929 15.3289 25.9928 15.358 25.9984 15.3863C26.005 15.4148 26.0174 15.4416 26.035 15.465C26.0525 15.4884 26.0748 15.5079 26.1003 15.5222L28.6888 16.9835L29.2212 18.6827C29.2323 18.7117 29.249 18.7381 29.2704 18.7604C29.2918 18.7828 29.3174 18.8007 29.3458 18.813C29.372 18.8183 29.399 18.8183 29.4251 18.813C29.4583 18.8238 29.494 18.8238 29.5271 18.813L32.6763 17.1138C32.7212 17.1022 32.7607 17.0757 32.7885 17.0387C32.8163 17.0016 32.8307 16.9562 32.8292 16.9099Z" fill="#212F45"/>
<path d="M25.7039 9.3995L22.2319 8.71982C22.1856 8.71329 22.1385 8.72121 22.0969 8.7425C22.0554 8.76379 22.0214 8.79741 21.9997 8.83876L20.7592 11.4216C20.7466 11.4481 20.7401 11.4771 20.7401 11.5065C20.7401 11.5359 20.7466 11.5649 20.7592 11.5915C20.7688 11.619 20.7844 11.644 20.805 11.6646C20.8256 11.6852 20.8507 11.7009 20.8782 11.7104L24.0614 12.9055C24.0856 12.9107 24.1107 12.9107 24.135 12.9055C24.1741 12.9076 24.2131 12.8993 24.2479 12.8814C24.2828 12.8635 24.3122 12.8366 24.3332 12.8036L25.8625 9.69969C25.8789 9.67128 25.8876 9.63905 25.8876 9.60624C25.8876 9.57343 25.8789 9.5412 25.8625 9.51278C25.8486 9.4815 25.8265 9.45451 25.7986 9.4346C25.7708 9.41468 25.7381 9.40257 25.7039 9.3995Z" fill="#212F45"/>
<path d="M19.0997 6.05768H18.0632L15.2709 3.83738C15.2339 3.81023 15.1893 3.79559 15.1434 3.79559C15.0976 3.79559 15.0529 3.81023 15.016 3.83738L12.4785 5.62721C12.4345 5.65815 12.4041 5.70479 12.3936 5.7575C12.3831 5.81021 12.3932 5.86495 12.4218 5.91042L13.9681 8.47056C13.9948 8.51299 14.0352 8.54508 14.0825 8.56154C14.1299 8.57801 14.1814 8.57789 14.2287 8.56119L15.4634 8.07408L16.6699 9.10494C16.7088 9.13568 16.7563 9.1535 16.8058 9.15591H17.6781C17.7166 9.15605 17.7545 9.14555 17.7875 9.12557C17.8204 9.10558 17.8473 9.07688 17.865 9.04263L19.2753 6.38053C19.2932 6.34953 19.3027 6.31437 19.3027 6.27858C19.3027 6.24279 19.2932 6.20762 19.2753 6.17663C19.2593 6.14298 19.2346 6.11421 19.2037 6.0933C19.1728 6.0724 19.137 6.0601 19.0997 6.05768Z" fill="#212F45"/>
<path d="M5.48338 0.739179L2.43612 0.0141819C2.38886 -0.00472729 2.33613 -0.00472729 2.28886 0.0141819L0.113867 1.22062C0.0836997 1.23754 0.0578059 1.26114 0.0381702 1.28961C0.0185344 1.31808 0.00567806 1.35067 0.000586058 1.38488C-0.00188357 1.41872 0.00347392 1.45267 0.0162433 1.4841C0.0290126 1.51553 0.0488507 1.5436 0.0742186 1.56613L2.58905 3.7921C2.62831 3.82603 2.67877 3.8442 2.73065 3.84307H4.66209C4.70007 3.84376 4.73753 3.83411 4.77045 3.81516C4.80338 3.7962 4.83053 3.76865 4.849 3.73546L5.64197 2.37042C5.65036 2.33696 5.65036 2.30194 5.64197 2.26847V0.965741C5.64636 0.915362 5.63288 0.865046 5.60388 0.823618C5.57488 0.78219 5.53221 0.752296 5.48338 0.739179Z" fill="#212F45"/>
</svg>
