<svg width="60" height="60" viewBox="0 0 60 60" fill="none" xmlns="http://www.w3.org/2000/svg">
<path d="M9.95407 35.8587C9.94001 35.8859 9.93267 35.916 9.93267 35.9467C9.93267 35.9773 9.94001 36.0074 9.95407 36.0346L15.5669 44.234C15.5851 44.2596 15.6092 44.2805 15.6371 44.2949C15.665 44.3093 15.6959 44.3168 15.7273 44.3168H15.7687L23.068 42.7752C23.1118 42.7678 23.1516 42.745 23.1801 42.7108C23.2085 42.6767 23.2238 42.6334 23.2232 42.589V39.3506H53.331C53.3831 39.3506 53.4331 39.3299 53.47 39.293C53.5068 39.2561 53.5275 39.2061 53.5275 39.154V15.8748C53.5254 15.8221 53.5032 15.7721 53.4655 15.7352C53.4468 15.7176 53.4248 15.704 53.4009 15.6951C53.3769 15.6863 53.3513 15.6823 53.3258 15.6834L24.6251 16.2007L6.77258 15.6989C6.72113 15.6977 6.67116 15.7162 6.6329 15.7507C6.60108 15.7849 6.58113 15.8284 6.576 15.8748L6.47254 20.8462C6.47233 20.8847 6.48309 20.9223 6.50358 20.9549L12.194 29.7492L9.95407 35.8587Z" fill="#212F45"/>
</svg>
