<svg width="60" height="60" viewBox="0 0 60 60" fill="none" xmlns="http://www.w3.org/2000/svg">
<path d="M51.3174 22.8912L48.6277 23.0689C48.5974 23.0705 48.5681 23.0799 48.5427 23.0963C48.5172 23.1127 48.4965 23.1356 48.4827 23.1625L44.7405 30.2071H42.8226L45.0071 24.7061C45.0162 24.6847 45.021 24.6616 45.021 24.6383C45.021 24.615 45.0162 24.5919 45.0071 24.5705L41.845 17.5539C41.836 17.5315 41.8221 17.5115 41.8043 17.4953C41.7865 17.4791 41.7652 17.4671 41.7421 17.4603L24.9023 11.3232L21.7635 8.70364C21.7434 8.6875 21.72 8.67581 21.695 8.66936C21.67 8.66291 21.6439 8.66184 21.6185 8.66622L13.5401 10.2613C13.4989 10.2701 13.4621 10.2933 13.4364 10.3268C13.4107 10.3602 13.3977 10.4016 13.3998 10.4438L13.7412 16.9926L10.1674 18.5128C10.1401 18.5234 10.1162 18.5412 10.0981 18.5642C10.08 18.5873 10.0684 18.6148 10.0645 18.6438L8.47879 28.5044C8.46345 28.5419 8.46345 28.5839 8.47879 28.6214L10.9346 32.6582C10.9497 32.6844 10.9716 32.706 10.9979 32.7209C11.0242 32.7357 11.0541 32.7431 11.0843 32.7424H13.9985L20.7672 39.4597L19.8971 47.8047C19.8927 47.8515 19.906 47.8983 19.9345 47.9357L22.7412 51.2709C22.7574 51.2913 22.778 51.3078 22.8015 51.3192C22.825 51.3305 22.8507 51.3364 22.8768 51.3364H44.8294C44.8539 51.3365 44.8783 51.3314 44.9008 51.3216C44.9233 51.3118 44.9436 51.2975 44.9603 51.2795C44.977 51.2614 44.9898 51.2402 44.9978 51.2169C45.0059 51.1937 45.009 51.1691 45.0071 51.1446L44.2493 42.9305L47.3927 33.8932L51.5138 23.1251C51.5263 23.0987 51.5328 23.07 51.5328 23.0409C51.5328 23.0117 51.5263 22.983 51.5138 22.9567C51.4916 22.9271 51.4609 22.905 51.4258 22.8933C51.3907 22.8816 51.3529 22.8809 51.3174 22.8912Z" fill="#212F45"/>
</svg>
