<svg width="60" height="60" viewBox="0 0 60 60" fill="none" xmlns="http://www.w3.org/2000/svg">
<path d="M51.6125 42.5013C51.6604 42.5 51.7059 42.4801 51.7394 42.4458C51.7728 42.4114 51.7915 42.3654 51.7915 42.3175V35.7682C51.7965 35.7459 51.7965 35.7228 51.7915 35.7005L47.7284 26.2248L47.0899 17.6488C47.0863 17.6039 47.0658 17.562 47.0326 17.5316C46.9995 17.5011 46.956 17.4842 46.911 17.4844H9.79674C9.7509 17.4843 9.70679 17.5018 9.67349 17.5333C9.64019 17.5648 9.62025 17.6079 9.61777 17.6537L8.20537 42.3223C8.20332 42.347 8.20658 42.3719 8.21492 42.3953C8.22326 42.4186 8.23649 42.4399 8.25374 42.4578C8.27016 42.4761 8.29029 42.4908 8.31281 42.5008C8.33532 42.5108 8.3597 42.5159 8.38434 42.5158L51.6125 42.5013Z" fill="#212F45"/>
</svg>
