<svg width="60" height="60" viewBox="0 0 60 60" fill="none" xmlns="http://www.w3.org/2000/svg">
<path d="M56.0193 33.3007L52.9066 33.0166C52.877 33.0145 52.8473 33.0186 52.8194 33.0286C52.7915 33.0386 52.7659 33.0542 52.7443 33.0746C52.7216 33.0949 52.7035 33.12 52.6915 33.148C52.6795 33.1761 52.6738 33.2064 52.6748 33.2369V38.9522H47.6203L38.7633 28.6461L44.2931 22.0729C44.3209 22.0351 44.3358 21.9894 44.3358 21.9425C44.3358 21.8956 44.3209 21.8499 44.2931 21.8121L40.9022 16.7228C40.8713 16.6753 40.8229 16.6419 40.7675 16.6299C40.7121 16.618 40.6542 16.6285 40.6065 16.659L35.5752 19.737H6.81319C6.76269 19.736 6.71348 19.753 6.67425 19.7848C6.63501 19.8166 6.60827 19.8612 6.59872 19.9108L3.78744 34.3208C3.78153 34.3533 3.78262 34.3866 3.79061 34.4186C3.79861 34.4506 3.81334 34.4805 3.83381 34.5063C3.8554 34.5294 3.88139 34.548 3.91026 34.561C3.93913 34.5739 3.97028 34.5809 4.00191 34.5817L34.1087 34.002L39.1342 43.2126C39.1517 43.2441 39.1767 43.2707 39.2071 43.2899C39.2375 43.3091 39.2722 43.3204 39.3081 43.3227C39.3408 43.3217 39.3729 43.3133 39.402 43.2982C39.4311 43.2832 39.4564 43.2619 39.4762 43.2358L42.2237 39.7579L46.2291 43.3169C46.269 43.3529 46.3204 43.3734 46.374 43.3749H55.9961C56.0545 43.3749 56.1106 43.3517 56.1519 43.3104C56.1932 43.2691 56.2164 43.2131 56.2164 43.1546V33.5151C56.2153 33.4615 56.1946 33.4102 56.1584 33.3707C56.1221 33.3312 56.0726 33.3063 56.0193 33.3007Z" fill="#212F45"/>
</svg>
