<svg width="60" height="60" viewBox="0 0 60 60" fill="none" xmlns="http://www.w3.org/2000/svg">
<path d="M23 9.5L8.1333 9L8 10.4374L9.17438 12.7392L8.97438 13.2347V14.2347L10.3744 13.9419L11.9995 13.9374H13.4995L17.7489 14.8747L18.6489 15.4647L19.6489 16.4647L20.5489 16.8792L19.9995 18.9374L23.4995 18.4374L26.9995 16.4374L30.4973 18.4216L32.5 22L34.5 23.5L33.5 30.5L34.5 32L35.5 31V32L34.5 33L36 36.5L37 38.5L38.5 37.5L37 39.5L37.5 40.5H39.5L40.5 44.5L44 47L45 48.5901L45.5 50.0901L49.1 49.752L50 48.5L51 45.5L52.0022 39.5L50 33L48 29L49 27L44.5 19L43 11.5H39.5L39.5 14.5H39L38.5 12.5L23.5 11.5L23 9.5Z" fill="#212F45"/>
</svg>
