<svg width="60" height="60" viewBox="0 0 60 60" fill="none" xmlns="http://www.w3.org/2000/svg">
<path d="M12.2028 51.8257H47.7972C47.8461 51.8255 47.893 51.8064 47.9281 51.7723C47.9617 51.7349 47.9807 51.6867 47.9815 51.6365L46.0412 16.7115C46.0387 16.6648 46.018 16.6209 45.9836 16.5891C45.9492 16.5574 45.9037 16.5404 45.8569 16.5418H34.2541L33.216 8.32953C33.2101 8.28625 33.1886 8.24661 33.1556 8.21803C33.1225 8.18946 33.0802 8.17391 33.0365 8.17431H12.2028C12.1583 8.1727 12.1148 8.1877 12.0807 8.21639C12.0467 8.24507 12.0245 8.2854 12.0185 8.32953V51.6462C12.0185 51.6702 12.0233 51.6939 12.0326 51.716C12.0419 51.7381 12.0556 51.7581 12.0728 51.7748C12.0899 51.7916 12.1103 51.8047 12.1326 51.8134C12.155 51.8222 12.1788 51.8263 12.2028 51.8257Z" fill="#212F45"/>
</svg>
