<svg width="60" height="60" viewBox="0 0 60 60" fill="none" xmlns="http://www.w3.org/2000/svg">
<path d="M4.28512 42.5564H44.8293C44.8867 42.5561 44.9418 42.5337 44.983 42.4937L48.5074 38.9694L48.5529 38.9125L49.9535 36.0087L55.5162 32.0972C55.5417 32.0798 55.5631 32.057 55.5788 32.0305C55.5946 32.0039 55.6043 31.9742 55.6073 31.9435L55.9261 28.8974C55.9315 28.8404 55.9152 28.7835 55.8806 28.738L54.1725 26.7395L55.1119 22.9988C55.132 22.9456 55.132 22.8869 55.1119 22.8337C55.0964 22.8085 55.0756 22.7868 55.0511 22.7701C55.0266 22.7534 54.9988 22.7421 54.9696 22.7369L45.2051 20.8239L37.029 17.4589C36.9855 17.4417 36.9376 17.439 36.8924 17.4513C36.8472 17.4637 36.8073 17.4903 36.7785 17.5273L32.588 23.0102L29.8323 28.5899L26.6097 26.9274C26.5788 26.9119 26.5447 26.9038 26.5101 26.9038C26.4755 26.9038 26.4414 26.9119 26.4105 26.9274L20.8478 29.7742L14.1123 31.5392C14.083 31.5481 14.0559 31.5627 14.0324 31.5823C14.0089 31.6018 13.9896 31.6259 13.9756 31.6531L11.6299 36.5041H7.61019C7.57363 36.5044 7.53775 36.5139 7.50589 36.5318C7.47403 36.5498 7.44723 36.5755 7.42799 36.6065L4.10293 42.2375C4.08325 42.2691 4.07281 42.3056 4.07281 42.3428C4.07281 42.3801 4.08325 42.4166 4.10293 42.4482C4.12056 42.4811 4.14685 42.5086 4.17896 42.5276C4.21107 42.5467 4.24778 42.5566 4.28512 42.5564Z" fill="#212F45"/>
</svg>
