<svg width="60" height="60" viewBox="0 0 60 60" fill="none" xmlns="http://www.w3.org/2000/svg">
<path d="M10.6674 43.8574C10.6605 43.9062 10.673 43.9557 10.7022 43.9955C10.7313 44.0353 10.7748 44.0621 10.8235 44.0702L26.5375 46.0002C26.5631 46.0021 26.5888 45.9989 26.6132 45.9908C26.6375 45.9826 26.66 45.9698 26.6794 45.9529C26.6995 45.9355 26.7152 45.9136 26.7251 45.8889C26.735 45.8642 26.7388 45.8374 26.7361 45.811L26.4902 42.5423L32.2516 44.3588L32.5071 48.143C32.5101 48.1775 32.5229 48.2104 32.5438 48.238C32.5647 48.2656 32.593 48.2868 32.6253 48.2991L37.9516 50.2953C37.9738 50.3058 37.998 50.3112 38.0226 50.3112C38.0471 50.3112 38.0714 50.3058 38.0935 50.2953L44.5267 46.9462L49.6354 50.2858C49.6652 50.3045 49.6996 50.3144 49.7348 50.3142C49.7601 50.3148 49.7852 50.3095 49.8081 50.2988C49.8311 50.2882 49.8513 50.2724 49.8672 50.2527L51.4187 48.4694C51.4514 48.4358 51.4697 48.3909 51.4697 48.344C51.4697 48.2972 51.4514 48.2522 51.4187 48.2187L47.942 45.1913L50.2504 41.7287C50.2753 41.6926 50.2862 41.6487 50.281 41.6051C50.2757 41.5615 50.2548 41.5214 50.222 41.4922L48.6894 40.163C48.665 40.1403 48.6344 40.1254 48.6015 40.1203C48.5686 40.1153 48.5349 40.1203 48.5049 40.1346L45.4113 41.4213L42.5731 38.8385L47.0149 37.3343C47.0416 37.3262 47.066 37.3116 47.0858 37.2918C47.1056 37.272 47.1202 37.2476 47.1284 37.2208C47.138 37.1938 47.1404 37.1648 47.1354 37.1366C47.1304 37.1084 47.1182 37.082 47.1 37.0599L45.416 34.7894L46.0688 31.0809C46.0732 31.0551 46.0721 31.0288 46.0656 31.0035C46.0591 30.9782 46.0473 30.9546 46.031 30.9342C46.0137 30.9149 45.9925 30.8995 45.9689 30.8889C45.9453 30.8783 45.9197 30.8728 45.8938 30.8727H30.3453L36.4427 17.1265C36.4564 17.0933 36.4601 17.0568 36.4534 17.0215C36.4467 16.9863 36.4298 16.9537 36.4048 16.9279L35.1986 15.7216L35.5912 9.875C35.5929 9.85086 35.5896 9.82662 35.5815 9.80382C35.5733 9.78102 35.5605 9.76016 35.5439 9.74256C35.5279 9.7246 35.5082 9.71025 35.4861 9.70047C35.4641 9.69068 35.4403 9.68568 35.4162 9.68579H8.71375C8.66608 9.68579 8.62036 9.70473 8.58665 9.73844C8.55294 9.77215 8.534 9.81787 8.534 9.86554V18.2713C8.52911 18.2931 8.52911 18.3157 8.534 18.3375L13.3873 30.324L10.6674 43.8574Z" fill="#212F45"/>
</svg>
