<svg width="60" height="60" viewBox="0 0 60 60" fill="none" xmlns="http://www.w3.org/2000/svg">
<path d="M40.9745 16.4469C40.9423 16.4252 40.9045 16.4132 40.8657 16.4123H30.7137L26.2852 13.7038C26.2559 13.6843 26.2215 13.674 26.1864 13.6741H14.5911C14.5634 13.669 14.5349 13.669 14.5071 13.6741L10.8842 15.488C10.867 15.4936 10.8516 15.5039 10.8398 15.5177L7.03399 19.1406C7.00542 19.1745 6.98975 19.2173 6.98975 19.2617C6.98975 19.306 7.00542 19.3489 7.03399 19.3828L14.2551 30.118L14.2897 30.1575L24.412 38.8218L28.5637 46.2356C28.579 46.2642 28.6019 46.288 28.6297 46.3046C28.6576 46.3211 28.6895 46.3298 28.7219 46.3295H34.5244C34.5507 46.3288 34.5765 46.3227 34.6003 46.3117C34.6241 46.3006 34.6454 46.2848 34.6628 46.2653L36.9957 43.5568L44.968 37.0375C44.9929 37.0185 45.0118 36.9928 45.0224 36.9634L47.1823 31.5612L52.9552 25.6054C52.9744 25.5871 52.9892 25.5647 52.9986 25.5399C53.008 25.5151 53.0118 25.4885 53.0096 25.4621C53.0069 25.436 52.999 25.4107 52.9863 25.3877C52.9735 25.3648 52.9562 25.3447 52.9354 25.3286L40.9745 16.4469Z" fill="#212F45"/>
</svg>
