<svg width="60" height="60" viewBox="0 0 60 60" fill="none" xmlns="http://www.w3.org/2000/svg">
<path d="M52.5247 35.5021L51.0995 30.6399C51.0803 30.5897 51.047 30.5461 51.0037 30.5142L45.5787 27.1729L46.5667 23.8377C46.5786 23.7988 46.5793 23.7574 46.5687 23.7182C46.5581 23.6791 46.5366 23.6436 46.5068 23.6161L42.0997 19.3407C42.0687 19.3084 42.028 19.2869 41.9839 19.2794C41.9397 19.2718 41.8942 19.2786 41.8542 19.2988L37.8363 21.0952C37.8015 21.1122 37.7708 21.1368 37.7465 21.167L33.9502 26.4005L29.9443 25.5023C29.908 25.4939 29.8703 25.495 29.8346 25.5054C29.7989 25.5159 29.7666 25.5355 29.7407 25.5622L25.4653 29.8316C25.4513 29.8481 25.4392 29.8662 25.4294 29.8854L24.0522 32.3225L19.4894 33.2686H19.4355L16.7409 34.6398L14.0104 31.6459C13.9683 31.6005 13.9105 31.5727 13.8488 31.568C13.7903 31.5724 13.7343 31.5931 13.6871 31.6279L4.70522 40.011C4.6694 40.0397 4.64369 40.0791 4.63183 40.1235C4.61997 40.1679 4.62258 40.2148 4.63929 40.2576C4.65599 40.3004 4.68592 40.3367 4.72471 40.3613C4.76349 40.3858 4.80911 40.3974 4.85492 40.3942L55.1534 40.7236C55.1928 40.7226 55.2314 40.7114 55.2652 40.6911C55.2991 40.6707 55.327 40.6419 55.3464 40.6075C55.3657 40.573 55.3757 40.5342 55.3755 40.4947C55.3752 40.4552 55.3647 40.4164 55.345 40.3822L52.5247 35.5021Z" fill="#212F45"/>
</svg>
