<svg width="60" height="60" viewBox="0 0 60 60" fill="none" xmlns="http://www.w3.org/2000/svg">
<path d="M38.0031 7.62624H25.0169C24.9906 7.62101 24.9635 7.62101 24.9372 7.62624L20.4523 9.70922L17.5421 8.69265C17.5122 8.68119 17.4799 8.67792 17.4483 8.68318C17.4168 8.68843 17.3872 8.70203 17.3627 8.72254C17.3384 8.74315 17.3193 8.76929 17.3072 8.79877C17.2951 8.82825 17.2902 8.86021 17.2929 8.89197L20.3128 34.082L17.283 52.181C17.2757 52.2174 17.28 52.2552 17.2952 52.2892C17.3104 52.3231 17.3357 52.3515 17.3677 52.3704C17.4002 52.3801 17.4348 52.3801 17.4673 52.3704C17.5044 52.3706 17.5407 52.3602 17.572 52.3405L23.5518 48.1396L28.9337 47.8406C28.9601 47.8411 28.9863 47.8349 29.0098 47.8228C29.0333 47.8106 29.0534 47.7927 29.0682 47.7709L31.1662 45.1348L38.1426 40.5353L42.6724 35.7016C42.6917 35.6803 42.7059 35.6548 42.7137 35.6272C42.7215 35.5995 42.7227 35.5703 42.7172 35.5421L38.1875 7.78072C38.1803 7.73716 38.1578 7.69762 38.1239 7.66927C38.0901 7.64093 38.0472 7.62566 38.0031 7.62624Z" fill="#212F45"/>
</svg>
