<svg width="60" height="60" viewBox="0 0 60 60" fill="none" xmlns="http://www.w3.org/2000/svg">
<path d="M7.47874 41.7644H52.5212C52.5783 41.7642 52.6331 41.7418 52.6741 41.7021C52.6939 41.681 52.7092 41.6561 52.719 41.6288C52.7287 41.6015 52.7327 41.5725 52.7307 41.5436L51.7741 26.0804C51.7737 26.0533 51.7675 26.0266 51.7557 26.0022C51.744 25.9778 51.7271 25.9562 51.7062 25.9389L49.4422 23.9636L50.7779 20.76C50.7968 20.7141 50.7992 20.6632 50.7847 20.6157C50.7703 20.5683 50.7399 20.5273 50.6987 20.4996L47.1895 18.2696C47.1563 18.2467 47.1166 18.2348 47.0763 18.2356H8.85413C8.80049 18.2356 8.74887 18.2561 8.70991 18.2929C8.67094 18.3298 8.6476 18.3802 8.6447 18.4337L7.26932 41.5436C7.26728 41.5725 7.27126 41.6015 7.281 41.6288C7.29074 41.6561 7.30604 41.681 7.32592 41.7021C7.36689 41.7418 7.42167 41.7642 7.47874 41.7644Z" fill="#212F45"/>
</svg>
