<svg width="60" height="60" viewBox="0 0 60 60" fill="none" xmlns="http://www.w3.org/2000/svg">
<path fill-rule="evenodd" clip-rule="evenodd" d="M23.1632 12.2333C26.1465 26.8 13.8632 24.3833 16.0799 30.9C14.6299 33.5667 13.9965 27.95 13.4132 31.55C12.8933 32.5332 12.7681 33.6777 13.0632 34.75C12.3632 36.2333 10.1799 37.6167 10.2799 39.5833C8.61321 40.7667 14.8465 47.0167 16.9465 46.9833C19.4299 53.65 27.3799 47.45 31.3465 45.1333C31.3465 40.1333 35.6965 36.6167 35.0299 31.6333C36.8965 31.2333 37.7965 35.9 39.5465 31.6333C39.6299 27.8333 42.8799 27.55 44.5465 23.6667C44.8299 22.8167 44.1299 19.75 45.3799 20.2C47.9632 23.0833 52.2465 22.2 48.7132 18.4333C47.3799 18.6333 45.8799 15.7167 45.3799 17.85C42.8632 18.05 43.9799 20.7667 40.6132 18.9667C39.6567 20.4753 38.4036 21.7738 36.9299 22.7833C34.4132 25.9833 35.4799 21.75 34.6465 20.3333C34.4651 19.9001 34.3147 19.4546 34.1965 19L25.6965 20.55L23.9465 10C22.8465 10.2 22.8632 11.4667 23.1632 12.2333Z" fill="#212F45"/>
</svg>
