<svg width="36" height="36" viewBox="0 0 36 36" fill="none" xmlns="http://www.w3.org/2000/svg">
<g clip-path="url(#clip0_9857_182126)">
<path d="M4.77434 29.853V0H22.9281V4.91037H26.8661V9.81648L30.833 13.38V14.6575L30.4968 17.2797C29.7572 17.1902 27.6786 17.3336 27.1946 17.2797C26.7104 17.226 26.9928 16.6746 27.1946 16.4057C27.5756 15.6437 28.23 13.9717 27.7997 13.38C27.3693 12.7883 26.679 13.6265 26.3877 14.1196L24.774 10.9595L22.9281 8.00109L21.8523 10.1527L22.9281 11.3629L23.5332 14.9937L22.323 16.8092L21.3144 15.666L20.3732 16.4057L21.3144 18.0194V19.8347L20.3732 21.314V23.1293L21.3144 24.8103C21.0903 25.7739 20.5883 27.8897 20.3732 28.6427C20.1042 29.5841 18.2216 32.6769 17.8181 32.8787C17.4147 33.0803 17.0112 31.4667 16.2717 32.139C15.68 32.6769 12.6185 33.5286 11.1617 33.8871L8.06879 35.0303C6.97064 35.0526 4.66673 35.1915 4.23631 35.5681C3.69827 36.0387 1.68164 36.2405 1.68164 35.5681C1.68164 35.0303 2.39857 34.7165 2.75704 34.6268V32.139C2.75704 30.9557 4.10191 30.122 4.77434 29.853Z" fill="#212F45"/>
<path d="M26.0737 20.1514L24.7971 18.063C24.6402 17.8062 24.2842 17.7639 24.0715 17.9767C23.9676 18.0808 23.9188 18.2278 23.9403 18.3733L24.2974 20.7948C24.3924 21.439 25.0855 21.8058 25.6716 21.5217C26.184 21.2733 26.3707 20.6373 26.0737 20.1514Z" fill="#212F45"/>
<path d="M23.3243 23.13V22.7587C23.3243 22.4577 23.5683 22.2136 23.8695 22.2136C24.0983 22.2136 24.3027 22.3566 24.3815 22.5714L24.7956 23.7034C25.0026 24.2692 24.9761 24.894 24.722 25.4403L24.0822 26.8159C24.005 26.982 23.8617 27.108 23.6873 27.1635C23.226 27.3103 22.7706 26.9227 22.8417 26.4438L23.3144 23.2647C23.321 23.2201 23.3243 23.175 23.3243 23.13Z" fill="#212F45"/>
<path d="M25.7655 26.387L28.0821 22.3446C28.2441 22.0619 28.6085 21.9705 28.8848 22.1432C29.1222 22.2917 29.2179 22.5897 29.1113 22.8488L28.355 24.6851C28.1819 25.1055 28.1091 25.5606 28.1424 26.0141L28.3644 29.0271C28.3739 29.156 28.3529 29.2854 28.3031 29.4048C28.175 29.7116 27.8753 29.9112 27.5429 29.9112H27.4767C27.1175 29.9112 26.7908 30.1197 26.6396 30.4457L26.3982 30.9653C26.2421 31.3016 25.9052 31.5167 25.5344 31.5167H24.89C24.4499 31.5167 24.1727 31.0428 24.3884 30.6593C24.4107 30.6194 24.4283 30.5771 24.4407 30.5331L25.2849 27.5322C25.3976 27.1322 25.559 26.7476 25.7655 26.387Z" fill="#212F45"/>
<path d="M31.9592 20.823L31.2953 20.2957C31.0941 20.136 30.8241 20.0934 30.5837 20.1835C30.2982 20.2906 30.1091 20.5635 30.1091 20.8684V22.4863C30.1091 22.9314 30.0122 23.3712 29.825 23.7751L29.6111 24.2367C29.2853 24.9399 29.3522 25.7625 29.7873 26.4039C29.9982 26.715 30.1263 27.0747 30.1595 27.4491L30.3669 29.7984C30.404 30.2184 30.7557 30.5404 31.1774 30.5404C31.5084 30.5404 31.8065 30.3397 31.9311 30.0331L32.249 29.2506C32.3555 28.9884 32.6102 28.8171 32.8931 28.8171C33.1656 28.8171 33.4131 28.6576 33.5259 28.4095L33.6344 28.1709C33.7874 27.8344 33.7616 27.4438 33.5657 27.1303L33.1772 26.5089C32.9321 26.1166 32.8022 25.6635 32.8022 25.201V22.569C32.8022 21.8889 32.4917 21.246 31.9592 20.823Z" fill="#212F45"/>
</g>
<defs>
<clipPath id="clip0_9857_182126">
<rect width="36" height="36" fill="white"/>
</clipPath>
</defs>
</svg>
