<svg width="60" height="60" viewBox="0 0 60 60" fill="none" xmlns="http://www.w3.org/2000/svg">
<path d="M19.8189 16.7151C19.7828 16.7416 19.7553 16.7782 19.74 16.8203L17.5618 24.3546L16.7726 30.2368C16.7668 30.2911 16.7818 30.3457 16.8147 30.3894L22.3444 37.1502C22.362 37.1709 22.3837 37.1876 22.4082 37.1994C22.4326 37.2112 22.4593 37.2177 22.4864 37.2186L25.5854 37.4027L24.0859 41.7013C24.0739 41.7365 24.072 41.7744 24.0803 41.8106C24.0887 41.8469 24.107 41.8801 24.1332 41.9065L29.3104 46.9837L29.4419 51.4979C29.4425 51.5296 29.4509 51.5607 29.4665 51.5883C29.4822 51.6158 29.5045 51.639 29.5314 51.6558L32.8566 53.7603C32.8878 53.781 32.9244 53.792 32.9618 53.7919C33.0057 53.7915 33.0482 53.7767 33.0828 53.7498L39.8068 48.4358C39.8276 48.4191 39.8448 48.3984 39.8575 48.3749C39.8701 48.3514 39.878 48.3256 39.8805 48.299L40.2698 44.1794L43.2267 36.5031C43.2293 36.4768 43.2293 36.4504 43.2267 36.4241L42.2481 12.1272C42.2531 12.1011 42.2531 12.0743 42.2481 12.0482L39.4648 6.32388C39.449 6.28968 39.4238 6.26067 39.3921 6.24019C39.3604 6.21971 39.3236 6.20859 39.286 6.20813H20.5239C20.4822 6.20896 20.4417 6.22249 20.4079 6.24694C20.374 6.27138 20.3484 6.30556 20.3345 6.34493C20.322 6.38353 20.3219 6.42507 20.3342 6.46374C20.3464 6.50242 20.3705 6.5363 20.4029 6.56064L24.8646 9.85952V13.211L19.8189 16.7151Z" fill="#212F45"/>
</svg>
