<svg width="60" height="60" viewBox="0 0 60 60" fill="none" xmlns="http://www.w3.org/2000/svg">
<path d="M31.393 11.5699L33.0223 8.96396C33.0391 8.9378 33.0485 8.90755 33.0494 8.87646C33.0503 8.84537 33.0428 8.81462 33.0275 8.7875C33.0123 8.76038 32.99 8.73791 32.963 8.72252C32.9359 8.70713 32.9052 8.69938 32.8741 8.70012H9.45753C9.4325 8.69979 9.4077 8.70495 9.38488 8.71524C9.36206 8.72552 9.34177 8.74069 9.32544 8.75966C9.30911 8.77864 9.29714 8.80096 9.29038 8.82506C9.28361 8.84916 9.2822 8.87445 9.28627 8.89916L12.1699 26.3771C12.1673 26.394 12.1673 26.4112 12.1699 26.4281L16.2108 34.3431L14.5398 40.0457C14.533 40.0683 14.533 40.0925 14.5398 40.1151L15.9285 51.1453C15.933 51.1875 15.9531 51.2264 15.9847 51.2546C16.0164 51.2828 16.0573 51.2983 16.0997 51.2981H47.8063C47.8282 51.3013 47.8506 51.3002 47.872 51.2947C47.8935 51.2892 47.9137 51.2795 47.9313 51.2662C47.949 51.2528 47.9638 51.2361 47.975 51.2169C47.9861 51.1977 47.9933 51.1765 47.9961 51.1546L50.7132 34.3524C50.7177 34.3279 50.7168 34.3028 50.7104 34.2788C50.704 34.2547 50.6923 34.2324 50.6761 34.2135L31.393 11.5699Z" fill="#212F45"/>
</svg>
