<svg width="60" height="60" viewBox="0 0 60 60" fill="none" xmlns="http://www.w3.org/2000/svg">
<path d="M53.5916 24.4097L51.3905 23.6619L51.5178 20.8721C51.5204 20.8175 51.5013 20.7641 51.4647 20.7236C51.4249 20.6845 51.3719 20.6618 51.3162 20.6599H21.4131C21.3874 20.6598 21.3619 20.665 21.3382 20.675C21.3145 20.685 21.2931 20.6997 21.2752 20.7183L16.5018 25.3644L8.24899 28.7801C8.21655 28.7951 8.18763 28.8168 8.16413 28.8437L6.30778 31.3472C6.28453 31.3764 6.27013 31.4117 6.26625 31.4489C6.26238 31.4861 6.2692 31.5236 6.28592 31.557C6.30263 31.5904 6.32854 31.6184 6.3606 31.6376C6.39266 31.6568 6.42954 31.6664 6.4669 31.6654L13.9347 31.554H13.9931L18.2361 30.2121H24.3568L27.5391 32.6625C27.5561 32.6781 27.5763 32.69 27.5982 32.6973C27.6201 32.7046 27.6434 32.7072 27.6664 32.7049L32.4398 32.6042L38.4438 39.2711C38.4625 39.2921 38.4854 39.309 38.5109 39.3209C38.5365 39.3328 38.5641 39.3393 38.5923 39.3401L42.305 39.0377C42.3397 39.035 42.373 39.0232 42.4019 39.0037C42.4307 38.9842 42.4539 38.9575 42.4694 38.9264L44.9092 33.9354L49.7251 32.3814C49.7575 32.3707 49.7867 32.352 49.8098 32.3269C49.833 32.3019 49.8495 32.2714 49.8577 32.2382L50.4623 29.8197L53.6446 27.7352C53.6729 27.7171 53.6961 27.6919 53.7119 27.6622C53.7277 27.6325 53.7355 27.5992 53.7348 27.5655V24.6007C53.7343 24.5577 53.7202 24.5161 53.6945 24.4817C53.6687 24.4474 53.6327 24.4222 53.5916 24.4097Z" fill="#212F45"/>
</svg>
