<svg width="60" height="60" viewBox="0 0 60 60" fill="none" xmlns="http://www.w3.org/2000/svg">
<path d="M10.8954 15.0192L9.13449 44.9589C9.132 44.9888 9.13759 45.0188 9.15067 45.0457C9.16375 45.0727 9.18383 45.0957 9.20882 45.1122C9.23832 45.1299 9.27198 45.1396 9.30639 45.1401C9.33254 45.1445 9.35924 45.1445 9.38538 45.1401L24.7687 37.6505L50.7127 34.5748C50.755 34.5702 50.7941 34.5501 50.8224 34.5183C50.8507 34.4866 50.8663 34.4454 50.866 34.4029V15.0285C50.8666 15.0058 50.8626 14.9832 50.8542 14.962C50.8458 14.9409 50.8332 14.9216 50.8171 14.9056C50.801 14.8895 50.7818 14.8768 50.7606 14.8684C50.7395 14.86 50.7168 14.856 50.6941 14.8566H11.0673C11.0232 14.8566 10.9809 14.8734 10.9489 14.9037C10.9169 14.9339 10.8977 14.9753 10.8954 15.0192Z" fill="#212F45"/>
</svg>
