<svg width="60" height="60" viewBox="0 0 60 60" fill="none" xmlns="http://www.w3.org/2000/svg">
<path d="M51.1475 42.3337L44.7005 44.7659L44.1497 43.6268L46.9506 41.5307C46.9717 41.5141 46.9885 41.4927 46.9999 41.4684C47.0112 41.4441 47.0167 41.4175 47.016 41.3907V23.4503C47.0161 23.4277 47.0116 23.4053 47.0027 23.3844C46.9939 23.3636 46.9809 23.3447 46.9647 23.329L44.1963 20.598V12.0316C44.1964 11.9854 44.1783 11.941 44.146 11.9078C44.1138 11.8747 44.0698 11.8555 44.0236 11.8542H34.4396C34.4147 11.8544 34.3901 11.8598 34.3676 11.8703C34.345 11.8808 34.325 11.896 34.3088 11.9149L27.4604 19.4449C27.4422 19.4657 27.4289 19.4904 27.4216 19.5171C27.4143 19.5438 27.4132 19.5718 27.4184 19.599L28.5902 24.9489L23.455 27.9366L18.0071 26.9189H12.0176C11.9891 26.9181 11.9609 26.9245 11.9356 26.9376C11.9103 26.9506 11.8887 26.9699 11.8729 26.9936C11.856 27.0123 11.8438 27.0348 11.8373 27.0591C11.8308 27.0835 11.8302 27.109 11.8356 27.1337L13.1567 30.7703L8.66577 33.7907C8.64231 33.8078 8.62328 33.8303 8.61029 33.8563C8.59729 33.8823 8.59071 33.911 8.59108 33.9401V36.503C8.59106 36.5492 8.60911 36.5936 8.64138 36.6268C8.67364 36.6599 8.71757 36.6791 8.76381 36.6804H33.6553L35.9894 40.5317C36.0035 40.5573 36.0246 40.5783 36.0501 40.5924L40.4524 43.132L42.6465 48.0431C42.6601 48.0737 42.6823 48.0998 42.7105 48.118C42.7387 48.1363 42.7716 48.1459 42.8052 48.1458H42.8472L51.0494 46.087C51.0854 46.0781 51.1174 46.0578 51.141 46.0292C51.1645 46.0007 51.1782 45.9653 51.1801 45.9283L51.4089 42.5064C51.4099 42.4774 51.4037 42.4486 51.391 42.4225C51.3782 42.3964 51.3593 42.3738 51.3358 42.3568C51.3123 42.3397 51.2849 42.3287 51.2562 42.3247C51.2274 42.3206 51.1981 42.3237 51.1708 42.3337H51.1475Z" fill="#212F45"/>
</svg>
