<svg width="60" height="60" viewBox="0 0 60 60" fill="none" xmlns="http://www.w3.org/2000/svg">
<path d="M34.8796 8.09766C34.8747 8.05308 34.8535 8.01188 34.8201 7.98203C34.7866 7.95218 34.7432 7.9358 34.6984 7.93606H31.207C31.1678 7.93535 31.1295 7.94738 31.0977 7.97034C31.0659 7.99329 31.0424 8.02594 31.0308 8.06338L28.6167 15.8492C28.6116 15.8668 28.6116 15.8854 28.6167 15.903V24.3988L24.3859 27.5621C24.3564 27.5845 24.3342 27.6152 24.3222 27.6503L20.2286 39.4612C20.2234 39.4821 20.2234 39.5039 20.2286 39.5248V48.3389L17.648 51.7666C17.6266 51.7936 17.6133 51.8262 17.6097 51.8605C17.6061 51.8949 17.6124 51.9295 17.6278 51.9603C17.6433 51.9912 17.6672 52.017 17.6968 52.0347C17.7264 52.0525 17.7604 52.0614 17.7949 52.0604H35.5015C35.5307 52.065 35.5604 52.065 35.5896 52.0604L39.6147 49.9108C39.639 49.8968 39.6606 49.8786 39.6784 49.8569L42.3569 46.0717C42.383 46.0357 42.3949 45.9913 42.3904 45.9471C42.3858 45.9029 42.3652 45.8618 42.3324 45.8318L38.9047 42.6538L34.8796 8.09766Z" fill="#212F45"/>
</svg>
