<svg width="60" height="60" viewBox="0 0 60 60" fill="none" xmlns="http://www.w3.org/2000/svg">
<path d="M15.1683 52.4947V49.8494H26.6194C26.6441 49.8494 26.6686 49.8445 26.6914 49.8349C26.7141 49.8253 26.7348 49.8112 26.752 49.7935C26.7692 49.7758 26.7828 49.7548 26.7918 49.7318C26.8008 49.7087 26.8051 49.6841 26.8044 49.6594V46.6591H49.9016C49.9526 46.6571 50.0009 46.6356 50.0366 46.5991C50.0544 46.5807 50.0681 46.5587 50.0767 46.5345C50.0854 46.5104 50.0887 46.4847 50.0866 46.4591L48.0214 7.4904C48.0188 7.44308 47.9982 7.39855 47.9638 7.36599C47.9294 7.33343 47.8838 7.31531 47.8364 7.31538H10.1028C10.0546 7.31401 10.0077 7.33154 9.97219 7.36424C9.93669 7.39693 9.91537 7.44221 9.91278 7.4904V52.4947C9.91278 52.5451 9.9328 52.5934 9.96844 52.629C10.0041 52.6647 10.0524 52.6847 10.1028 52.6847H14.9833C15.008 52.6847 15.0325 52.6798 15.0552 52.6702C15.078 52.6605 15.0986 52.6465 15.1159 52.6288C15.1331 52.611 15.1467 52.5901 15.1557 52.567C15.1647 52.544 15.1689 52.5194 15.1683 52.4947Z" fill="#212F45"/>
</svg>
