<svg width="60" height="60" viewBox="0 0 60 60" fill="none" xmlns="http://www.w3.org/2000/svg">
<path d="M14.7382 29.2027L15.4655 34.6985C15.4701 34.7387 15.4864 34.7766 15.5122 34.8076L21.9067 41.7787L22.4833 46.4018C22.4888 46.4356 22.5026 46.4675 22.5234 46.4947C22.5443 46.5219 22.5715 46.5435 22.6027 46.5576L34.3735 51.2327L37.5785 56.2973C37.5956 56.325 37.6192 56.348 37.6473 56.3643C37.6754 56.3806 37.7071 56.3897 37.7396 56.3908H37.7759L50.061 54.0533C50.1091 54.0434 50.1519 54.0163 50.1815 53.9771C50.2112 53.9379 50.2255 53.8893 50.222 53.8403L49.3597 45.0408C49.3531 44.9936 49.3312 44.9498 49.2974 44.9161L26.2753 24.2056V9.19862C26.2753 9.17293 26.2701 9.14751 26.2602 9.12384C26.2502 9.10018 26.2355 9.07876 26.2171 9.06084C26.1987 9.04292 26.1769 9.02888 26.153 9.01953C26.1291 9.01018 26.1035 9.00572 26.0779 9.00642H9.97486C9.94918 9.00572 9.92363 9.01018 9.89971 9.01953C9.87579 9.02888 9.85398 9.04292 9.83558 9.06084C9.81718 9.07876 9.80256 9.10018 9.79258 9.12384C9.78259 9.14751 9.77746 9.17293 9.77747 9.19862V23.6913C9.77881 23.7394 9.79723 23.7854 9.82941 23.8212L14.7382 29.2027Z" fill="#212F45"/>
</svg>
