<svg width="60" height="60" viewBox="0 0 60 60" fill="none" xmlns="http://www.w3.org/2000/svg">
<path d="M51.4991 21.2294L53.0552 14.8744C53.0626 14.8444 53.0631 14.8131 53.0565 14.7829C53.0499 14.7527 53.0364 14.7244 53.0171 14.7003C52.9985 14.6758 52.9747 14.6558 52.9474 14.6416C52.9201 14.6275 52.89 14.6197 52.8593 14.6186L46.5533 14.6567L39.6542 16.4141L27.5535 14.858C27.5303 14.8525 27.506 14.8525 27.4828 14.858L16.9818 17.2956L15.4637 13.5141C15.4486 13.4759 15.4224 13.443 15.3884 13.4198C15.3545 13.3965 15.3144 13.3839 15.2733 13.3835H11.4538C11.4066 13.3837 11.361 13.4 11.3244 13.4297C11.2877 13.4594 11.2624 13.5007 11.2524 13.5468L5.37079 39.9353C5.35752 39.9741 5.35752 40.0162 5.37079 40.055L7.93347 46.4862C7.94798 46.5249 7.97404 46.5582 8.00811 46.5815C8.04217 46.6049 8.0826 46.6172 8.12391 46.6168H54.4372C54.4649 46.6169 54.4923 46.6112 54.5177 46.5999C54.543 46.5887 54.5656 46.5722 54.5841 46.5515C54.6035 46.5315 54.6184 46.5075 54.6278 46.4812C54.6372 46.455 54.6408 46.427 54.6385 46.3992L53.6809 30.9632L51.4991 21.2294Z" fill="#212F45"/>
</svg>
