<svg width="60" height="60" viewBox="0 0 60 60" fill="none" xmlns="http://www.w3.org/2000/svg">
<path d="M52.4826 25.8571L49.476 24.3427L47.0875 20.2281C47.0702 20.1959 47.0445 20.1691 47.0131 20.1504C46.9817 20.1318 46.9458 20.1221 46.9093 20.1223H14.3992V17.4777C14.3991 17.4433 14.3904 17.4095 14.3738 17.3793C14.3573 17.3492 14.3335 17.3236 14.3045 17.3051C14.2741 17.2875 14.2395 17.2782 14.2043 17.2782C14.1691 17.2782 14.1346 17.2875 14.1041 17.3051L7.50632 20.139C7.46883 20.1556 7.43714 20.1831 7.41532 20.2178C7.3935 20.2525 7.38254 20.2929 7.38383 20.3339V42.5103C7.38309 42.5378 7.38787 42.5652 7.39788 42.5908C7.4079 42.6164 7.42296 42.6398 7.44216 42.6595C7.46137 42.6793 7.48433 42.6949 7.50969 42.7056C7.53506 42.7163 7.56231 42.7218 7.58984 42.7218H47.5551C47.6055 42.7195 47.654 42.7021 47.6943 42.6717L52.5216 38.4959C52.544 38.4778 52.5622 38.4549 52.5747 38.4289C52.5872 38.4029 52.5938 38.3744 52.594 38.3456C52.596 38.3172 52.592 38.2886 52.5825 38.2618C52.5729 38.235 52.5578 38.2104 52.5383 38.1897L49.7544 35.1664L49.5484 32.8948L52.5828 28.3459C52.6055 28.3112 52.6171 28.2704 52.6162 28.229V26.0409C52.6144 26.0005 52.6008 25.9616 52.577 25.9289C52.5533 25.8962 52.5204 25.8713 52.4826 25.8571Z" fill="#212F45"/>
</svg>
