<svg width="60" height="60" viewBox="0 0 60 60" fill="none" xmlns="http://www.w3.org/2000/svg">
<path d="M40.7596 44.7462L48.9733 34.8033C49.0006 34.771 49.0159 34.7303 49.0165 34.688V8.35135C49.0165 8.30294 48.9972 8.25651 48.963 8.22228C48.9288 8.18805 48.8824 8.16882 48.834 8.16882H45.2411C45.2069 8.16873 45.1735 8.17876 45.145 8.19764L38.3723 12.6023L34.8563 11.4303C34.8328 11.4198 34.8075 11.4144 34.7818 11.4144C34.7561 11.4144 34.7308 11.4198 34.7074 11.4303L30.0097 14.2883L26.6858 11.2958C26.6527 11.2666 26.6098 11.2511 26.5657 11.2526L11.1614 11.4207C11.1138 11.4219 11.0686 11.4417 11.0354 11.4758C11.0022 11.5099 10.9837 11.5556 10.9837 11.6032V42.748C10.9829 42.7827 10.9925 42.8168 11.0114 42.8459C11.0302 42.8751 11.0574 42.8979 11.0894 42.9113L21.8873 48.0461C21.9189 48.0528 21.9517 48.0528 21.9833 48.0461L28.3333 47.388L35.058 51.8023C35.0882 51.8213 35.1232 51.8313 35.1589 51.8311H35.2165C35.2566 51.8024 35.2841 51.7594 35.2934 51.711L37.8199 44.9864L40.6106 44.8231C40.6397 44.8223 40.6681 44.815 40.6939 44.8017C40.7197 44.7884 40.7421 44.7694 40.7596 44.7462Z" fill="#212F45"/>
</svg>
