<svg width="60" height="60" viewBox="0 0 60 60" fill="none" xmlns="http://www.w3.org/2000/svg">
<path d="M47.7664 15.474L47.8279 12.1624C47.8277 12.1147 47.809 12.0689 47.7758 12.0347C47.7607 12.0168 47.7418 12.0025 47.7206 11.9927C47.6993 11.9829 47.6762 11.9779 47.6528 11.9779H11.3532C11.3049 11.9798 11.2592 12.0001 11.2255 12.0347C11.2089 12.0523 11.1961 12.0731 11.1879 12.0959C11.1798 12.1187 11.1765 12.143 11.1782 12.1671L11.9777 27.5092L11.4431 40.7555C11.441 40.7924 11.4509 40.8289 11.4714 40.8596C11.4919 40.8903 11.5218 40.9136 11.5566 40.9258L14.3667 42.0139L14.1207 46.8914C14.1188 46.9148 14.122 46.9384 14.1302 46.9605C14.1384 46.9826 14.1513 47.0026 14.168 47.0191C14.1838 47.0363 14.2027 47.0501 14.2238 47.0599C14.245 47.0696 14.2678 47.0751 14.2911 47.0759L40.5992 48.0221C40.6255 48.0221 40.6516 48.0161 40.6753 48.0047C40.6991 47.9932 40.72 47.9765 40.7364 47.9558C40.7536 47.9351 40.766 47.9107 40.7726 47.8844C40.7791 47.8582 40.7797 47.8309 40.7742 47.8044L40.4525 46.4609L41.9001 42.7141C41.9121 42.6772 41.9121 42.6374 41.9001 42.6005L40.7884 38.8774L48.8828 25.5838L51.1252 19.5188L52.3978 18.8139C52.4252 18.7993 52.448 18.7775 52.4639 18.7508C52.4797 18.7241 52.488 18.6936 52.4877 18.6626V15.6632C52.4884 15.6401 52.4843 15.617 52.4757 15.5955C52.4672 15.5739 52.4543 15.5544 52.4379 15.538C52.4215 15.5216 52.402 15.5087 52.3804 15.5002C52.3589 15.4916 52.3358 15.4875 52.3127 15.4882L47.7664 15.474Z" fill="#212F45"/>
</svg>
