<svg width="60" height="60" viewBox="0 0 60 60" fill="none" xmlns="http://www.w3.org/2000/svg">
<path d="M45.6956 16.991L44.6128 14.7313C44.5979 14.6977 44.5738 14.669 44.5432 14.6487C44.5127 14.6283 44.4769 14.617 44.4402 14.6162H7.30172C7.25957 14.6281 7.22269 14.6539 7.1971 14.6894C7.1791 14.7111 7.16566 14.7361 7.15757 14.7631C7.14948 14.7901 7.14691 14.8184 7.15003 14.8464L8.5048 25.2556C8.50972 25.2903 8.52421 25.3229 8.54664 25.3498L10.2833 27.5676L11.2562 32.631C11.2629 32.661 11.2754 32.6894 11.2928 32.7147L12.9143 34.7181L12.5273 40.1371C12.5247 40.1689 12.5301 40.2008 12.5429 40.23C12.5557 40.2592 12.5754 40.2848 12.6005 40.3045L14.7608 42.0987C14.7972 42.1255 14.8411 42.1402 14.8863 42.1405H41.1971L44.0845 45.3156C44.1226 45.3565 44.1751 45.3809 44.231 45.3836H44.2728C44.3068 45.3754 44.3382 45.3586 44.3638 45.3348C44.3895 45.311 44.4086 45.2809 44.4193 45.2476L47.0347 36.6482L49.739 33.6562L52.7833 31.0042C52.804 30.9857 52.8207 30.9632 52.8324 30.938C52.8441 30.9128 52.8505 30.8855 52.8513 30.8578V28.4673C52.8503 28.4262 52.8376 28.3863 52.8147 28.3522L50.6596 25.3602L44.7645 19.8679L45.706 17.1427C45.7222 17.0927 45.7185 17.0383 45.6956 16.991Z" fill="#212F45"/>
</svg>
