<svg width="60" height="60" viewBox="0 0 60 60" fill="none" xmlns="http://www.w3.org/2000/svg">
<path d="M38.2049 38.1586V7.35433C38.2035 7.30439 38.1828 7.25693 38.147 7.22208C38.1112 7.18723 38.0632 7.16774 38.0132 7.16776H23.1128C23.079 7.16714 23.0457 7.17573 23.0164 7.19261C22.987 7.20948 22.9629 7.23401 22.9464 7.26356L17.5661 16.7736C17.561 16.7952 17.561 16.8176 17.5661 16.8392L16.9963 20.9538C16.9886 20.987 16.9886 21.0215 16.9963 21.0546L18.0704 23.8078L16.961 27.0047C16.9484 27.0406 16.9484 27.0798 16.961 27.1157L18.6503 33.3885L13.5624 45.8988C13.5474 45.9258 13.5396 45.9561 13.5396 45.987C13.5396 46.0179 13.5474 46.0483 13.5624 46.0752C13.5807 46.1012 13.6048 46.1225 13.6329 46.1374C13.6609 46.1523 13.6921 46.1604 13.7238 46.161H27.9838L27.4796 48.4855C27.4621 48.531 27.4621 48.5813 27.4796 48.6267L30.1722 52.7464C30.1895 52.7733 30.2135 52.7954 30.2417 52.8104C30.27 52.8254 30.3016 52.8329 30.3336 52.8321H30.3739L39.3192 50.8454C39.3646 50.8346 39.4045 50.8077 39.4314 50.7696C39.4583 50.7316 39.4704 50.685 39.4655 50.6387L38.2049 38.1586Z" fill="#212F45"/>
</svg>
