<svg width="60" height="60" viewBox="0 0 60 60" fill="none" xmlns="http://www.w3.org/2000/svg">
<path d="M50.8539 45.3197C50.9004 45.3197 50.9449 45.3012 50.9778 45.2684C51.0107 45.2355 51.0291 45.1909 51.0291 45.1445L50.176 14.8463C50.1736 14.8015 50.1541 14.7592 50.1215 14.7283C50.0889 14.6974 50.0457 14.6802 50.0007 14.6803H10.009C9.96456 14.6803 9.92185 14.6976 9.88998 14.7286C9.85811 14.7596 9.8396 14.8019 9.8384 14.8463L8.97142 45.1445C8.96953 45.1673 8.97268 45.1903 8.98065 45.2118C8.98862 45.2334 9.00121 45.2529 9.01754 45.269C9.05092 45.3013 9.09555 45.3195 9.14205 45.3197H50.8539Z" fill="#212F45"/>
</svg>
