<svg width="60" height="60" viewBox="0 0 60 60" fill="none" xmlns="http://www.w3.org/2000/svg">
<path d="M20.4391 41.4963C20.4026 41.5277 20.3796 41.572 20.3748 41.62C20.3723 41.6449 20.375 41.67 20.3827 41.6939C20.3904 41.7177 20.4028 41.7397 20.4193 41.7585L25.249 47.469L25.2935 47.5037L32.3204 51.8979C32.3497 51.9174 32.3841 51.9277 32.4193 51.9276H32.4738C32.4998 51.9196 32.5238 51.9063 32.5442 51.8883C32.5647 51.8704 32.5812 51.8484 32.5925 51.8237L39.6193 36.0134C39.6292 35.9778 39.6292 35.9401 39.6193 35.9045L37.8379 24.9239C37.8299 24.8811 37.8072 24.8424 37.7738 24.8144C37.7404 24.7864 37.6984 24.7709 37.6548 24.7705H33.5822L37.8379 14.923C37.8573 14.8808 37.86 14.8327 37.8452 14.7886C37.8305 14.7445 37.7996 14.7077 37.7587 14.6855L25.4816 8.08923C25.4575 8.07813 25.4314 8.07239 25.4049 8.07239C25.3784 8.07239 25.3522 8.07813 25.3282 8.08923C25.3027 8.0974 25.2795 8.11154 25.2606 8.13048C25.2416 8.14941 25.2275 8.17259 25.2193 8.19809L22.1364 16.5659L20.3748 26.2303C20.3701 26.2668 20.376 26.304 20.3918 26.3373C20.4076 26.3706 20.4326 26.3988 20.4639 26.4183L26.5109 30.095L25.6548 37.1515L20.4391 41.4963Z" fill="#212F45"/>
</svg>
