<svg width="60" height="60" viewBox="0 0 60 60" fill="none" xmlns="http://www.w3.org/2000/svg">
<path d="M49.3103 39.3099L48.6397 35.2627C48.6315 35.2287 48.6149 35.1972 48.5915 35.1711L43.6134 29.8649V24.8385C43.614 24.8147 43.6099 24.7909 43.6012 24.7687C43.5925 24.7465 43.5795 24.7263 43.5628 24.7092C43.5462 24.6921 43.5263 24.6785 43.5043 24.6692C43.4823 24.66 43.4587 24.6552 43.4349 24.6552H41.2015L35.601 18.9245V14.6507C35.6009 14.602 35.5818 14.5553 35.548 14.5204L32.2919 11.2644C32.2567 11.2309 32.2102 11.212 32.1617 11.2113H8.25497C8.22807 11.2113 8.20152 11.2174 8.17729 11.2291C8.15307 11.2407 8.1318 11.2578 8.11508 11.2788C8.0977 11.2991 8.08554 11.3234 8.07965 11.3494C8.07377 11.3755 8.07434 11.4026 8.08131 11.4284L9.04607 15.7698C9.05651 15.8166 9.08402 15.8579 9.12325 15.8856L12.4517 18.0128L13.2524 23.8834V45.3444C13.2524 45.3922 13.271 45.4381 13.3044 45.4724C13.3377 45.5066 13.3831 45.5265 13.4309 45.5278H44.3659L44.8868 48.6391C44.8938 48.6813 44.9156 48.7195 44.9483 48.747C44.9811 48.7744 45.0226 48.7892 45.0653 48.7886H48.7314C48.7596 48.7892 48.7875 48.7829 48.8127 48.7703C48.8379 48.7577 48.8597 48.7392 48.8761 48.7163L51.8958 44.5051C51.9145 44.4773 51.9244 44.4445 51.9244 44.411C51.9244 44.3775 51.9145 44.3448 51.8958 44.317L49.3103 39.3099Z" fill="#212F45"/>
</svg>
