<svg width="60" height="60" viewBox="0 0 60 60" fill="none" xmlns="http://www.w3.org/2000/svg">
<path d="M22.0567 36.3265C22.0567 36.3789 22.0772 36.4293 22.1138 36.4669C22.1503 36.5044 22.2001 36.5262 22.2525 36.5276H26.671L34.677 40.8243C34.7003 40.8348 34.7256 40.8403 34.7511 40.8403C34.7766 40.8403 34.8019 40.8348 34.8252 40.8243L39.6246 39.4009L43.1382 40.819C43.1676 40.8271 43.1987 40.8271 43.2281 40.819L50.2235 40.1787L53.5519 41.8456C53.5816 41.851 53.6121 41.851 53.6418 41.8456C53.6811 41.8458 53.7197 41.8348 53.7529 41.8138C53.7827 41.7937 53.8063 41.7658 53.8212 41.7331C53.8362 41.7004 53.8418 41.6643 53.8376 41.6286L51.8533 22.3252V18.3512C51.8533 18.2979 51.8321 18.2468 51.7944 18.209C51.7567 18.1713 51.7055 18.1501 51.6522 18.1501H6.3621C6.30877 18.1501 6.25763 18.1713 6.21992 18.209C6.18221 18.2468 6.16103 18.2979 6.16103 18.3512V21.4309C6.16218 21.4807 6.18176 21.5282 6.21597 21.5644C6.25019 21.6006 6.2966 21.6228 6.34623 21.6267L22.0567 22.8067V36.3265Z" fill="#212F45"/>
</svg>
