<svg xmlns="http://www.w3.org/2000/svg" width="32" height="33" viewBox="0 0 32 33">
  <path fill="#0E9B55" d="M31.070964,1.15018792 L31.070964,1.15018792 C29.7761931,-0.281041834 27.5663329,-0.391663578 26.1351031,0.903107338 C26.1239405,0.913205713 26.1128432,0.923376107 26.1018119,0.933617883 L10.3484863,15.559534 L5.89860067,10.2779261 C4.72699691,8.8873394 2.64993117,8.70981866 1.25934449,9.88142241 C1.2136505,9.91992073 1.16901297,9.95965579 1.12548149,10.0005834 L1.12548149,10.0005834 C-0.284470055,11.3261986 -0.382609437,13.5334356 0.904130518,14.9789525 L8.85953397,23.9160109 C9.59395522,24.7410559 10.8581524,24.8145209 11.6831973,24.0800997 C11.6948609,24.0697173 11.7064024,24.0591987 11.7178195,24.048546 L30.8575338,6.19037157 C32.2934188,4.85062931 32.388447,2.6065235 31.070964,1.15018792 Z" transform="translate(0 4)"/>
</svg>
