<svg width="16" height="16" viewBox="0 0 16 16" fill="none" xmlns="http://www.w3.org/2000/svg">
<g clip-path="url(#clip0_18870_310)">
<path d="M15 8C15 11.866 11.866 15 8 15C4.13401 15 1 11.866 1 8C1 4.13401 4.13401 1 8 1C11.866 1 15 4.13401 15 8Z" fill="#BAD9F7"/>
<path d="M6.06 6.00016C6.21674 5.55461 6.5261 5.1789 6.93331 4.93958C7.34051 4.70027 7.81927 4.61279 8.28479 4.69264C8.75031 4.77249 9.17255 5.01451 9.47672 5.37585C9.78089 5.73718 9.94737 6.19451 9.94667 6.66683C9.94667 8.00016 7.94667 8.66683 7.94667 8.66683M8 11.3335H8.00667M14.6667 8.00016C14.6667 11.6821 11.6819 14.6668 8 14.6668C4.3181 14.6668 1.33334 11.6821 1.33334 8.00016C1.33334 4.31826 4.3181 1.3335 8 1.3335C11.6819 1.3335 14.6667 4.31826 14.6667 8.00016Z" stroke="#0850C4" stroke-linecap="round" stroke-linejoin="round"/>
<path d="M6.05992 5.99989C6.21666 5.55434 6.52602 5.17863 6.93322 4.93931C7.34043 4.7 7.81919 4.61252 8.28471 4.69237C8.75023 4.77222 9.17247 5.01424 9.47664 5.37558C9.78081 5.73691 9.94729 6.19424 9.94659 6.66656C9.94659 7.99989 7.94659 8.66656 7.94659 8.66656M7.99992 11.3332H8.00659" stroke="#0850C4" stroke-width="1.33" stroke-linecap="round" stroke-linejoin="round"/>
</g>
<defs>
<clipPath id="clip0_18870_310">
<rect width="16" height="16" fill="white"/>
</clipPath>
</defs>
</svg>
