<svg width="16" height="16" viewBox="0 0 16 16" fill="none" xmlns="http://www.w3.org/2000/svg">
<path d="M8 15C11.866 15 15 11.866 15 8C15 4.13401 11.866 1 8 1C4.13401 1 1 4.13401 1 8C1 11.866 4.13401 15 8 15Z" fill="#DAEBFF"/>
<path d="M5.963 5.9C6.12757 5.43217 6.45241 5.03767 6.87997 4.78639C7.30753 4.53511 7.81023 4.44326 8.29902 4.5271C8.78782 4.61094 9.23117 4.86507 9.55055 5.24447C9.86994 5.62387 10.0447 6.10407 10.044 6.6C10.044 8 7.944 8.7 7.944 8.7" fill="#DAEBFF"/>
<path d="M6.05992 5.99989C6.21666 5.55434 6.52602 5.17863 6.93322 4.93931C7.34043 4.7 7.81919 4.61252 8.28471 4.69237C8.75023 4.77222 9.17247 5.01424 9.47664 5.37558C9.78081 5.73691 9.94729 6.19424 9.94659 6.66656C9.94659 7.99989 7.94659 8.66656 7.94659 8.66656M7.99992 11.3332H8.00659" stroke="#0850C4" stroke-width="1.33" stroke-linecap="round" stroke-linejoin="round"/>
</svg>
