<svg width="24" height="24" viewBox="0 0 24 24" fill="none" xmlns="http://www.w3.org/2000/svg">
<path d="M3.99999 8.00004V17.8C3.99999 18.9201 3.99999 19.4802 4.21798 19.908C4.40972 20.2844 4.71568 20.5903 5.09201 20.7821C5.51983 21 6.07988 21 7.19999 21H16.8C17.9201 21 18.4802 21 18.908 20.7821C19.2843 20.5903 19.5903 20.2844 19.782 19.908C20 19.4802 20 18.9201 20 17.8V8.00004M3.99999 8.00004L6.02019 3.99007C7.0504 3.04369 8.90016 2.32789 9.99378 2.13747C10.5574 2.03932 11.1158 1.89809 11.9973 1.89819C12.8788 1.8983 13.5497 2.00303 14.0207 2.13747C14.6396 2.31413 17.0173 3.02344 18.0062 3.99007L20 8.00004M3.99999 8.00004L1.94537 12M20 8.00004L22.0211 12M15.5793 10.4733L7.99999 21V11.6C7.99999 11.04 7.99999 10.76 8.10898 10.5461C8.20486 10.3579 8.35784 10.2049 8.546 10.109C8.75991 10 9.03994 10 9.59999 10H14.4C14.96 10 15.2401 10 15.454 10.109C15.6421 10.2049 15.7951 10.3579 15.891 10.5461C16 10.76 16 11.04 16 11.6V21L8.42067 10.4733" stroke="black" stroke-width="2" stroke-linecap="round" stroke-linejoin="round"/>
</svg>
