<svg width="24" height="24" viewBox="0 0 24 24" fill="none" xmlns="http://www.w3.org/2000/svg">
<path d="M8.33331 21V7C8.33331 6.07003 8.33331 5.60504 8.43554 5.22354C8.71294 4.18827 9.52158 3.37962 10.5569 3.10222C10.9384 3 11.4033 3 12.3333 3C13.2633 3 13.7283 3 14.1098 3.10222C15.145 3.37962 15.9537 4.18827 16.2311 5.22354C16.3333 5.60504 16.3333 6.07003 16.3333 7V13.5M16.3333 17.5V21M7.13331 21H17.5333C19.2135 21 20.0535 21 20.6953 20.673C21.2598 20.3854 21.7187 19.9265 22.0063 19.362C22.3333 18.7202 22.3333 17.8802 22.3333 16.2V11.8C22.3333 10.1198 22.3333 9.27976 22.0063 8.63803C21.7187 8.07354 21.2598 7.6146 20.6953 7.32698C20.0535 7 19.2135 7 17.5333 7H7.13331C5.45316 7 4.61308 7 3.97134 7.32698C3.40686 7.6146 2.94791 8.07354 2.66029 8.63803C2.33331 9.27976 2.33331 10.1198 2.33331 11.8V16.2C2.33331 17.8802 2.33331 18.7202 2.66029 19.362C2.94791 19.9265 3.40686 20.3854 3.97134 20.673C4.61308 21 5.45316 21 7.13331 21ZM13.1333 17.5H18.0333C18.3133 17.5 18.4534 17.5 18.5603 17.4455C18.6544 17.3976 18.7309 17.3211 18.7788 17.227C18.8333 17.12 18.8333 16.98 18.8333 16.7V14.3C18.8333 14.02 18.8333 13.88 18.7788 13.773C18.7309 13.6789 18.6544 13.6024 18.5603 13.5545C18.4534 13.5 18.3133 13.5 18.0333 13.5H13.1333C12.8533 13.5 12.7133 13.5 12.6063 13.5545C12.5122 13.6024 12.4357 13.6789 12.3878 13.773C12.3333 13.88 12.3333 14.02 12.3333 14.3V16.7C12.3333 16.98 12.3333 17.12 12.3878 17.227C12.4357 17.3211 12.5122 17.3976 12.6063 17.4455C12.7133 17.5 12.8533 17.5 13.1333 17.5Z" stroke="black" stroke-width="2" stroke-linecap="round" stroke-linejoin="round"/>
</svg>
