<svg width="24" height="24" viewBox="0 0 24 24" fill="none" xmlns="http://www.w3.org/2000/svg">
<path d="M6.08899 14.9653C5.5367 14.9653 5.08899 15.413 5.08899 15.9653C5.08899 16.5176 5.5367 16.9653 6.08899 16.9653V14.9653ZM6.09899 16.9653C6.65127 16.9653 7.09899 16.5176 7.09899 15.9653C7.09899 15.413 6.65127 14.9653 6.09899 14.9653V16.9653ZM0.985107 12.9712C0.985107 13.5235 1.43282 13.9712 1.98511 13.9712C2.53739 13.9712 2.98511 13.5235 2.98511 12.9712H0.985107ZM21.7226 10.683L22.4297 9.97586V9.97586L21.7226 10.683ZM19.2933 8.2537L18.5862 8.9608V8.9608L19.2933 8.2537ZM11.9993 6.9608C11.447 6.9608 10.9993 7.40852 10.9993 7.9608C10.9993 8.51309 11.447 8.9608 11.9993 8.9608V6.9608ZM18.0143 4.10917C18.0143 3.55689 17.5666 3.10917 17.0143 3.10917C16.462 3.10917 16.0143 3.55689 16.0143 4.10917H18.0143ZM9.99999 14.4074C9.99999 14.9597 10.4477 15.4074 11 15.4074C11.5523 15.4074 12 14.9597 12 14.4074H9.99999ZM11.9993 14.9726C11.447 14.9726 10.9993 15.4203 10.9993 15.9726C10.9993 16.5249 11.447 16.9726 11.9993 16.9726V14.9726ZM6.08899 15.9653V16.9653H6.09899V15.9653V14.9653H6.08899V15.9653ZM6.58899 15.9653H5.58899C5.58899 15.6892 5.81285 15.4653 6.08899 15.4653V16.4653V17.4653C6.91742 17.4653 7.58899 16.7938 7.58899 15.9653H6.58899ZM6.08899 16.4653V15.4653C6.36513 15.4653 6.58899 15.6892 6.58899 15.9653H5.58899H4.58899C4.58899 16.7938 5.26056 17.4653 6.08899 17.4653V16.4653ZM5.58899 15.9653H6.58899C6.58899 16.2415 6.36513 16.4653 6.08899 16.4653V15.4653V14.4653C5.26056 14.4653 4.58899 15.1369 4.58899 15.9653H5.58899ZM6.08899 15.4653V16.4653C5.81285 16.4653 5.58899 16.2415 5.58899 15.9653H6.58899H7.58899C7.58899 15.1369 6.91742 14.4653 6.08899 14.4653V15.4653ZM11.1534 15.9653H10.1534C10.1534 18.2101 8.33372 20.0298 6.08899 20.0298V21.0298V22.0298C9.43829 22.0298 12.1534 19.3146 12.1534 15.9653H11.1534ZM6.08899 21.0298V20.0298C3.84425 20.0298 2.02454 18.2101 2.02454 15.9653H1.02454H0.0245361C0.0245361 19.3146 2.73968 22.0298 6.08899 22.0298V21.0298ZM1.02454 15.9653H2.02454C2.02454 13.7206 3.84425 11.9009 6.08899 11.9009V10.9009V9.90088C2.73968 9.90088 0.0245361 12.616 0.0245361 15.9653H1.02454ZM6.08899 10.9009V11.9009C8.33372 11.9009 10.1534 13.7206 10.1534 15.9653H11.1534H12.1534C12.1534 12.616 9.43829 9.90088 6.08899 9.90088V10.9009ZM20.0039 18.5044H19.0039C19.0039 19.3328 18.3323 20.0044 17.5039 20.0044V21.0044V22.0044C19.4369 22.0044 21.0039 20.4374 21.0039 18.5044H20.0039ZM17.5039 21.0044V20.0044C16.6755 20.0044 16.0039 19.3328 16.0039 18.5044H15.0039H14.0039C14.0039 20.4374 15.5709 22.0044 17.5039 22.0044V21.0044ZM15.0039 18.5044H16.0039C16.0039 17.676 16.6755 17.0044 17.5039 17.0044V16.0044V15.0044C15.5709 15.0044 14.0039 16.5714 14.0039 18.5044H15.0039ZM17.5039 16.0044V17.0044C18.3323 17.0044 19.0039 17.676 19.0039 18.5044H20.0039H21.0039C21.0039 16.5714 19.4369 15.0044 17.5039 15.0044V16.0044ZM1.98511 12.9712H2.98511V4.96973H1.98511H0.985107V12.9712H1.98511ZM3.98511 2.96973V3.96973H8.99999V2.96973V1.96973H3.98511V2.96973ZM22.0155 14.9726H23.0155V11.3901H22.0155H21.0155V14.9726H22.0155ZM21.7226 10.683L22.4297 9.97586L20.0004 7.54659L19.2933 8.2537L18.5862 8.9608L21.0155 11.3901L21.7226 10.683ZM18.5862 7.9608V6.9608H17.0143V7.9608V8.9608H18.5862V7.9608ZM17.0143 7.9608V6.9608H11.9993V7.9608V8.9608H17.0143V7.9608ZM17.0143 7.9608H18.0143V4.10917H17.0143H16.0143V7.9608H17.0143ZM11 4.96973H9.99999V14.4074H11H12V4.96973H11ZM11.9993 15.9726V16.9726H21.0155V15.9726V14.9726H11.9993V15.9726ZM19.2933 8.2537L20.0004 7.54659C19.6253 7.17152 19.1166 6.9608 18.5862 6.9608V7.9608V8.9608L18.5862 8.9608L19.2933 8.2537ZM22.0155 11.3901H23.0155C23.0155 10.8596 22.8047 10.3509 22.4297 9.97586L21.7226 10.683L21.0155 11.3901V11.3901H22.0155ZM22.0155 14.9726H21.0155H21.0155V15.9726V16.9726C22.12 16.9726 23.0155 16.0771 23.0155 14.9726H22.0155ZM8.99999 2.96973V3.96973C9.55227 3.96973 9.99999 4.41744 9.99999 4.96973H11H12C12 3.31287 10.6568 1.96973 8.99999 1.96973V2.96973ZM1.98511 4.96973H2.98511C2.98511 4.41744 3.43282 3.96973 3.98511 3.96973V2.96973V1.96973C2.32825 1.96973 0.985107 3.31287 0.985107 4.96973H1.98511Z" fill="black"/>
</svg>
