<svg width="24" height="24" viewBox="0 0 24 24" fill="none" xmlns="http://www.w3.org/2000/svg">
<path d="M7 11.0002V7.00015C6.99876 5.7602 7.45828 4.56402 8.28938 3.64382C9.12047 2.72362 10.2638 2.14506 11.4975 2.02044C12.7312 1.89583 13.9671 2.23406 14.9655 2.96947C15.9638 3.70488 16.6533 4.785 16.9 6.00015" stroke="black" stroke-width="2" stroke-linecap="round" stroke-linejoin="round"/>
<path fill-rule="evenodd" clip-rule="evenodd" d="M4 13C4 12.4477 4.44772 12 5 12H19C19.5523 12 20 12.4477 20 13V20C20 20.5523 19.5523 21 19 21H5C4.44772 21 4 20.5523 4 20V13ZM5 10C3.34315 10 2 11.3431 2 13V20C2 21.6569 3.34315 23 5 23H19C20.6569 23 22 21.6569 22 20V13C22 11.3431 20.6569 10 19 10H5ZM13 15C13 14.4477 12.5523 14 12 14C11.4477 14 11 14.4477 11 15V18C11 18.5523 11.4477 19 12 19C12.5523 19 13 18.5523 13 18V15Z" fill="black"/>
</svg>
