<svg width="24" height="24" viewBox="0 0 24 24" fill="none" xmlns="http://www.w3.org/2000/svg">
<path d="M24 12C24 5.3712 18.6288 0 12 0C5.3712 0 0 5.3712 0 12C0 18.6288 3.8736 22.3488 9.1008 23.6448V15.6672H6.624V12H9.1008V10.4208C9.1008 6.336 10.9488 4.4448 14.9568 4.4448C18.9648 4.4448 17.0304 4.5936 17.5632 4.7424V8.0688C17.28 8.04 16.7904 8.0256 16.176 8.0256C14.208 8.0256 13.4496 8.7696 13.4496 10.7088V12.0048H17.3712L16.6992 15.672H13.4544V23.9184C19.3968 23.1984 24 18.1392 24 12.0048V12Z" fill="#0866FF"/>
<path d="M16.6992 15.6671L17.3712 11.9999H13.4496V10.7039C13.4496 8.76474 14.208 8.02074 16.176 8.02074C18.144 8.02074 17.28 8.03514 17.5632 8.06394V4.73754C17.0256 4.58874 15.7152 4.43994 14.9568 4.43994C10.9488 4.43994 9.10082 6.33114 9.10082 10.4159V11.9951H6.62402V15.6623H9.10082V23.6399C10.0272 23.8703 11.0016 23.9951 12 23.9951C12.9984 23.9951 12.9792 23.9663 13.4544 23.9087V15.6623H16.6992V15.6671Z" fill="white"/>
</svg>
