<svg width="24" height="24" viewBox="0 0 24 24" fill="none" xmlns="http://www.w3.org/2000/svg">
<path d="M7.64941 1.7002L13.0107 9.33594L13.1572 9.54395L13.3252 9.35254L20.0527 1.7002H21.373L13.8477 10.2598L13.7441 10.3779L13.834 10.5068L22.1143 22.2998H16.3506L10.6846 14.2314L10.5391 14.0234L10.3711 14.2148L3.2627 22.2998H1.94238L9.84863 13.3076L9.95312 13.1895L9.8623 13.0605L1.88574 1.7002H7.64941ZM3.85742 2.98047L10.4668 12.2314L11.2979 13.3945L16.9561 21.3135L17.0156 21.3975H20.3525L20.127 21.0811L13.1934 11.377L12.3623 10.2139L7.02832 2.74805L6.96875 2.66504H3.63184L3.85742 2.98047Z" fill="black" stroke="black" stroke-width="0.4"/>
</svg>
