<svg width="24" height="24" viewBox="0 0 24 24" fill="none" xmlns="http://www.w3.org/2000/svg">
<path d="M12.4499 2.09963C13.098 1.94436 13.7785 1.97072 14.4157 2.17775L14.6111 2.24904C14.9766 2.39855 15.2962 2.62067 15.6072 2.87892C15.7561 2.9549 15.8815 3.06623 15.9743 3.20021C16.2678 3.4717 16.5974 3.79985 16.9743 4.17678L20.9372 8.13967L21.6335 8.84279C21.8428 9.05889 22.0287 9.2586 22.1872 9.44533C22.5116 9.82752 22.7818 10.223 22.9363 10.6983L23.0144 10.9737C23.1474 11.5291 23.1475 12.1086 23.0144 12.6641L22.9363 12.9395C22.7818 13.4148 22.5117 13.8101 22.1872 14.1924C21.8702 14.5658 21.4457 14.9896 20.9372 15.4981L15.5486 20.8867H21.9958C22.548 20.8869 22.9958 21.3345 22.9958 21.8867C22.9956 22.4388 22.5479 22.8866 21.9958 22.8867H13.2507C13.1616 22.8986 13.0712 22.8989 12.9822 22.8867H8.65403C8.5653 22.8988 8.47529 22.8985 8.38645 22.8867H2.02122C1.46912 22.8867 1.02145 22.4388 1.02122 21.8867C1.02122 21.3345 1.46898 20.8868 2.02122 20.8867H6.0886L3.17649 17.9746C2.79956 17.5977 2.47141 17.2681 2.19993 16.9746C2.06594 16.8818 1.95461 16.7564 1.87864 16.6074C1.62038 16.2965 1.39826 15.9769 1.24876 15.6113L1.17747 15.416C0.940847 14.6877 0.94084 13.9032 1.17747 13.1748L1.24094 13C1.40057 12.6008 1.6426 12.2563 1.92649 11.9219C2.24351 11.5485 2.66801 11.1247 3.17649 10.6162L9.61594 4.17678L10.3191 3.48049C10.5353 3.27107 10.7348 3.08536 10.9216 2.92678C11.3039 2.60229 11.6992 2.3322 12.1745 2.17775L12.4499 2.09963ZM14.6208 12.5381C14.526 13.0757 14.4491 13.5821 14.24 14.0186L14.1423 14.2012C13.9394 14.5389 13.666 14.8283 13.3425 15.0508L13.2009 15.1426C12.8445 15.3567 12.4326 15.458 11.99 15.541L11.5378 15.6211L4.83372 16.8037L8.55344 20.5235L8.91966 20.8867H12.7175C12.8305 20.7745 12.9527 20.6545 13.0837 20.5235L19.5232 14.084C20.055 13.5522 20.411 13.1951 20.6628 12.8985C20.907 12.6109 20.9935 12.4456 21.0339 12.3213L21.0691 12.1983C21.1289 11.9489 21.1288 11.6888 21.0691 11.4395L21.0339 11.3164C20.9935 11.1921 20.9068 11.0268 20.6628 10.7393C20.5369 10.591 20.3848 10.4271 20.198 10.2344L19.5232 9.55373L15.8034 5.834L14.6208 12.5381ZM13.7976 4.0801C13.5117 3.98724 13.2065 3.97524 12.9157 4.04494L12.7927 4.0801C12.6684 4.12049 12.5032 4.20702 12.2156 4.45119C12.0672 4.57714 11.9035 4.7291 11.7107 4.91603L11.03 5.59084L4.59055 12.0303C4.05873 12.5621 3.70277 12.9192 3.45091 13.2158C3.26777 13.4316 3.17287 13.5782 3.11985 13.6904L3.07981 13.793C2.97372 14.1196 2.97373 14.4712 3.07981 14.7979L3.12669 14.9151C3.14767 14.9577 3.17449 15.0056 3.20969 15.0596L11.1902 13.6514L11.6599 13.5654C12.0257 13.4947 12.1099 13.4642 12.1706 13.4278L12.2458 13.376C12.3182 13.3195 12.3799 13.25 12.4275 13.1709L12.4636 13.0928C12.5012 12.9878 12.5483 12.7732 12.6511 12.1904L14.0593 4.20998C14.0053 4.17478 13.9574 4.14796 13.9148 4.12697L13.7976 4.0801Z" fill="black"/>
</svg>
