<svg width="24" height="24" viewBox="0 0 24 24" fill="none" xmlns="http://www.w3.org/2000/svg">
<path d="M21 7.8C21 6.11984 21 5.27976 20.673 4.63803C20.3854 4.07354 19.9265 3.6146 19.362 3.32698C18.7202 3 17.8802 3 16.2 3H7.8C6.11984 3 5.27976 3 4.63803 3.32698C4.07354 3.6146 3.6146 4.07354 3.32698 4.63803C3 5.27976 3 6.11984 3 7.8V13.2C3 14.8802 3 15.7202 3.32698 16.362C3.6146 16.9265 4.07354 17.3854 4.63803 17.673C5.27976 18 6.11984 18 7.8 18H10.3163C10.9403 18 11.2523 18 11.5508 18.0613C11.8156 18.1156 12.0718 18.2055 12.3125 18.3285C12.5838 18.4671 12.8275 18.662 13.3148 19.0518L15.7002 20.9602C16.1163 21.2931 16.3244 21.4595 16.4995 21.4597C16.6517 21.4599 16.7958 21.3906 16.8908 21.2716C17 21.1348 17 20.8684 17 20.3355V18C17.93 18 18.395 18 18.7765 17.8978C19.8117 17.6204 20.6204 16.8117 20.8978 15.7765C21 15.395 21 14.93 21 14V7.8Z" stroke="black" stroke-width="2" stroke-linecap="round" stroke-linejoin="round"/>
</svg>
