<svg width="24" height="24" viewBox="0 0 24 24" fill="none" xmlns="http://www.w3.org/2000/svg">
<g clip-path="url(#clip0_3463_406341)">
<path d="M10.1823 14.0029L15.1321 9.05312M10.3286 14.2688L13.6112 20.8553C13.8684 21.3715 13.9971 21.6296 14.1628 21.7024C14.3066 21.7656 14.4719 21.7575 14.6089 21.6805C14.7666 21.5918 14.8693 21.3223 15.0747 20.7834L21.5973 3.67057C21.7982 3.14355 21.8986 2.88004 21.8414 2.71007C21.7917 2.5624 21.676 2.44633 21.5285 2.39617C21.3587 2.33842 21.0949 2.43801 20.5672 2.63719L3.40535 9.11538C2.86537 9.31921 2.59538 9.42112 2.5062 9.57865C2.42876 9.71545 2.42016 9.88071 2.48299 10.0248C2.55533 10.1907 2.81328 10.3201 3.32919 10.5789L9.97127 13.9106C10.0597 13.955 10.1039 13.9772 10.1422 14.0068C10.1762 14.033 10.2067 14.0636 10.2329 14.0976C10.2624 14.136 10.2845 14.1803 10.3286 14.2688Z" stroke="black" stroke-width="2" stroke-linecap="round" stroke-linejoin="round"/>
</g>
<defs>
<clipPath id="clip0_3463_406341">
<rect width="24" height="24" fill="white"/>
</clipPath>
</defs>
</svg>
